<?xml version="1.0" standalone="no"?>
<!DOCTYPE svg PUBLIC "-//W3C//DTD SVG 1.1//EN" "http://www.w3.org/Graphics/SVG/1.1/DTD/svg11.dtd" >
<svg>
<metadata>
Created by FontForge 20090914 at Sat Jul 13 11:06:54 2019
 By www-data
Copyright (c) 1985, 1987, 1991, 1993, 1997 Adobe Systems Incorporated.  All Rights Reserved.Helvetica is a trademark of Linotype-Hell AG and/or its subsidiaries.
</metadata>
<defs>
<font id="Helvetica-CondensedBold" horiz-adv-x="500" >
  <font-face 
    font-family="Helvetica-Condensed"
    font-weight="700"
    font-stretch="expanded"
    units-per-em="1000"
    panose-1="2 11 8 0 0 0 0 0 0 0"
    ascent="800"
    descent="-200"
    x-height="564"
    cap-height="750"
    bbox="-48 -250 1091 991"
    underline-thickness="50"
    underline-position="-50"
    unicode-range="U+0020-U+2122"
  />
<missing-glyph horiz-adv-x="502" 
d="M-1 0h500v500h-500v-500zM9 10v480h480v-480h-480z" />
    <glyph glyph-name=".notdef" horiz-adv-x="502" 
d="M-1 0h500v500h-500v-500zM9 10v480h480v-480h-480z" />
    <glyph glyph-name="space" unicode=" " horiz-adv-x="250" 
 />
    <glyph glyph-name="exclam" unicode="!" horiz-adv-x="333" 
d="M101 540c0 -32.667 0.832031 -62.833 2.49902 -90.5s3.83398 -55.167 6.50098 -82.5l6 -59c4.66699 -52 7.66699 -90 9 -114h85c2 25.333 5.33301 63.333 10 114c3.33301 36 5 55.667 5 59c4.66699 54 7 98 7 132v21c-0.666992 11.333 -1 18 -1 20v210h-130v-210z
M231.999 0.000976562v132h-130v-132h130z" />
    <glyph glyph-name="quotedbl" unicode="&#x22;" horiz-adv-x="333" 
d="M318 468v271h-119v-271h119zM135 468v271h-119v-271h119z" />
    <glyph glyph-name="numbersign" unicode="#" 
d="M445 331h-75l11 92h88v98h-76l27 217h-86l-26 -217h-73l26 217h-83l-27 -217h-95v-98h84l-11 -92h-98v-98h85l-28 -233h84l29 233h72l-28 -233h85l29 233h86v98zM296 423l-12 -92h-71l11 92h72z" />
    <glyph glyph-name="dollar" unicode="$" 
d="M279 287c14.667 -9.33301 28.333 -24 41 -44s19 -41.333 19 -64c0 -26 -5.5 -46.833 -16.5 -62.5s-25.5 -26.167 -43.5 -31.5v202zM217.999 85c-27.333 7.33301 -44.499 20.498 -51.499 39.498s-10.833 47.5 -11.5 85.5v12h-120v-12c-0.666992 -4 -1 -8 -1 -12
c0 -62.667 14.5 -113 43.5 -151s74.833 -59.667 137.5 -65v-106h68v109c64.667 9.33301 111.334 31.666 140.001 66.999s43 88 43 158c-0.666992 48.667 -17.834 92.167 -51.501 130.5s-78.834 71.833 -135.501 100.5v199c22 -6 36.667 -16.833 44 -32.5s11 -38.5 11 -68.5
h116c0 10 -0.666992 22.333 -2 37c-1.33301 12 -2 20.667 -2 26c-1.33301 36 -15.833 66.5 -43.5 91.5s-67.5 40.5 -119.5 46.5v63h-68v-63c-57.333 -7.33301 -100 -28.166 -128 -62.499s-42 -75.5 -42 -123.5c0 -31.333 3.83301 -58.666 11.5 -81.999
s18.5 -43.666 32.5 -60.999s29.5 -32.5 46.5 -45.5s40.167 -29.167 69.5 -48.5l13 -9v-223zM218 460.998l-4 5c-16.667 17.333 -29 32.833 -37 46.5s-12 31.167 -12 52.5c0 19.333 4.66699 36 14 50s22.333 22.333 39 25v-179z" />
    <glyph glyph-name="percent" unicode="%" horiz-adv-x="833" 
d="M184 736c-34 0 -61.5 -4.83301 -82.5 -14.5s-36.5 -22.834 -46.5 -39.501s-16.5 -35 -19.5 -55s-4.5 -44.667 -4.5 -74c0 -28.667 1.5 -53.167 4.5 -73.5s9.5 -38.833 19.5 -55.5s25.5 -29.834 46.5 -39.501s48.5 -14.5 82.5 -14.5c34.667 0 62.667 4.83301 84 14.5
s37 22.834 47 39.501s16.5 35.167 19.5 55.5s4.5 44.833 4.5 73.5s-1.5 53.167 -4.5 73.5s-9.5 38.833 -19.5 55.5s-25.667 29.834 -47 39.501s-49.333 14.5 -84 14.5zM186 663c26 0 42 -8.16699 48 -24.5s9 -44.833 9 -85.5s-3 -69.167 -9 -85.5s-22 -24.5 -48 -24.5
s-42.333 8.33301 -49 25s-10 45 -10 85s3.33301 68.333 10 85s23 25 49 25zM649 366c-34 0 -61.5 -4.83301 -82.5 -14.5s-36.5 -22.834 -46.5 -39.501s-16.5 -35 -19.5 -55s-4.5 -44.667 -4.5 -74c0 -28.667 1.5 -53.167 4.5 -73.5s9.5 -38.833 19.5 -55.5
s25.5 -29.834 46.5 -39.501s48.5 -14.5 82.5 -14.5c34.667 0 62.667 4.83301 84 14.5s37 22.834 47 39.501s16.333 35.167 19 55.5s4 44.833 4 73.5s-1.33301 53.167 -4 73.5s-9 38.833 -19 55.5s-25.667 29.834 -47 39.501s-49.333 14.5 -84 14.5zM650 293
c26 0 42 -8.16699 48 -24.5s9 -44.833 9 -85.5s-3 -69.167 -9 -85.5s-22 -24.5 -48 -24.5s-42.167 8.16699 -48.5 24.5s-9.5 44.833 -9.5 85.5s3.16699 69.167 9.5 85.5s22.5 24.5 48.5 24.5zM280 -15l335 765h-70l-336 -765h71z" />
    <glyph glyph-name="ampersand" unicode="&#x26;" horiz-adv-x="667" 
d="M306 518c-2 5.33301 -6 13.335 -12 24.002c-9.33301 17.333 -16.333 31.666 -21 42.999s-7 22.666 -7 33.999c0 16 4.5 28.167 13.5 36.5s20.5 12.5 34.5 12.5c13.333 -0.666992 25 -6.5 35 -17.5s15 -24.833 15 -41.5c0 -17.333 -5.33301 -33.5 -16 -48.5
s-24.667 -29.167 -42 -42.5zM363 425.002c35.333 22 63.166 48.832 83.499 80.499s30.5 67.167 30.5 106.5c0 46.667 -15.833 84.334 -47.5 113.001s-68.5 43 -110.5 43c-22 0 -43.167 -3 -63.5 -9s-38.833 -15.5 -55.5 -28.5s-29.834 -30 -39.501 -51
s-14.5 -45.5 -14.5 -73.5c0 -26 5 -51.167 15 -75.5s24.667 -53.166 44 -86.499c-47.333 -33.333 -82.833 -68 -106.5 -104s-35.5 -80 -35.5 -132c0 -31.333 5 -60.833 15 -88.5s24 -51.834 42 -72.501s39.167 -36.667 63.5 -48s50.833 -17 79.5 -17
c36.667 0 68.834 4.83301 96.501 14.5s53.834 26.5 78.501 50.5l27 -50h150l-90 150c44 75.333 66 159.333 66 252h-111c-2 -50 -9.66699 -95.667 -23 -137zM385 136.001c-14.667 -12.667 -29.332 -22.665 -43.999 -29.998s-30.334 -11 -47.001 -11
c-26.667 0 -48.834 11.5 -66.501 34.5s-28.834 49.833 -33.501 80.5c0 2 -0.333008 4.66699 -1 8v9c0 13.333 2.33301 26.666 7 39.999s11.334 25.666 20.001 36.999c14.667 20 29.334 33 44.001 39z" />
    <glyph glyph-name="quotesingle" unicode="'" horiz-adv-x="250" 
d="M185 468v271h-119v-271h119z" />
    <glyph glyph-name="parenleft" unicode="(" horiz-adv-x="333" 
d="M198 768c-50.667 -69.333 -87.6689 -141.831 -111.002 -217.498s-35 -157.834 -35 -246.501c0 -53.333 2.66699 -101 8 -143s13.5 -81.5 24.5 -118.5s25.5 -74.167 43.5 -111.5s41.333 -80.333 70 -129h83c-19.333 42 -35.166 81 -47.499 117s-22.166 71.5 -29.499 106.5
s-12.5 71.167 -15.5 108.5s-4.5 80.333 -4.5 129c0 66 2 124.167 6 174.5s10 94.666 18 132.999s17.667 72.833 29 103.5s25.333 62 42 94h-81z" />
    <glyph glyph-name="parenright" unicode=")" horiz-adv-x="333" 
d="M135 -198c50.667 69.333 87.6689 141.831 111.002 217.498s35 157.834 35 246.501c0 53.333 -2.66699 101 -8 143s-13.5 81.5 -24.5 118.5s-25.5 74.167 -43.5 111.5s-41.333 80.333 -70 129h-83c19.333 -42 35.166 -81 47.499 -117s22.166 -71.5 29.499 -106.5
s12.5 -71.167 15.5 -108.5s4.5 -80.333 4.5 -129c0 -66 -2 -124.167 -6 -174.5s-10 -94.666 -18 -132.999s-17.667 -72.833 -29 -103.5s-25.333 -62 -42 -94h81z" />
    <glyph glyph-name="asterisk" unicode="*" 
d="M382 461l-53.998 75c-3.33301 6 -8 12 -14 18c4 0 10 1.33301 18 4l90 27l-27 78l-86 -29l-15 -5l-6 -2c0.666992 4 1 10 1 18v93h-80v-93c0 -9.33301 0.333008 -16 1 -20c-2.66699 1.33301 -6.66699 2.66602 -12 3.99902l-6 2l-89 28l-24 -76l88 -28
c3.33301 -0.666992 6.66602 -1.66699 9.99902 -3s6.66602 -2.33301 9.99902 -3c-4 -4 -7.66699 -8.66699 -11 -14l-55 -76l66 -47l54 74c2 2.66699 3 4.33398 3 5.00098c4.66699 5.33301 7.66699 10 9 14c1.33301 -2.66699 3.33301 -6 6 -10l3 -5l54 -77z" />
    <glyph glyph-name="plus" unicode="+" 
d="M195 304h-169v-110h169v-194h110v194h170v110h-170v188h-110v-188z" />
    <glyph glyph-name="comma" unicode="," horiz-adv-x="333" 
d="M101 -145c88 10.667 132 60.001 132 148.001v129h-132v-132h70c0 -29.333 -6.16699 -52.833 -18.5 -70.5s-29.5 -27.834 -51.5 -30.501v-44z" />
    <glyph glyph-name="hyphen" unicode="-" horiz-adv-x="333" 
d="M286 255v115h-238v-115h238z" />
    <glyph glyph-name="period" unicode="." horiz-adv-x="333" 
d="M233 0v132h-132v-132h132z" />
    <glyph glyph-name="slash" unicode="/" horiz-adv-x="278" 
d="M-11 -94h87l236 844h-87z" />
    <glyph glyph-name="zero" unicode="0" 
d="M188 538c0 40 5.33301 67.499 16 82.499s25.667 22.5 45 22.5c20 0 35.667 -7.66699 47 -23s17 -42.666 17 -81.999v-337c0 -40 -5.66699 -67.667 -17 -83s-27 -23 -47 -23c-19.333 0 -34.333 7.66699 -45 23s-16 43 -16 83v337zM48 200.999
c0 -76.667 17.167 -131.834 51.5 -165.501s84.5 -50.5 150.5 -50.5c66.667 0 117.167 16.833 151.5 50.5s51.5 88.834 51.5 165.501v337c0 76.667 -17.167 131.667 -51.5 165s-84.5 50 -150.5 50c-66.667 0 -117.167 -16.667 -151.5 -50s-51.5 -88.333 -51.5 -165v-337z" />
    <glyph glyph-name="one" unicode="1" 
d="M213 0h140v750h-103c-13.333 -48 -37.5 -81.5 -72.5 -100.5s-79.5 -28.833 -133.5 -29.5v-100h169v-520z" />
    <glyph glyph-name="two" unicode="2" 
d="M442 0l-0.000976562 109.991h-261c0.666992 22.667 8 44.834 22 66.501s31 42.834 51 63.501l110 114c30 30.667 52.333 62.334 67 95.001s22 69.334 22 110.001c0 59.333 -18.5 106.333 -55.5 141s-85.5 52.334 -145.5 53.001c-49.333 0 -88.833 -8 -118.5 -24
s-51.167 -36 -64.5 -60s-21.666 -47.833 -24.999 -71.5s-5 -49.167 -5 -76.5v-21h131c0 30.667 0.666992 53.334 2 68.001s4.33301 27.334 9 38.001c4.66699 13.333 12.667 22.833 24 28.5s25 8.5 41 8.5c21.333 0 37.833 -6.83301 49.5 -20.5s17.5 -36.5 17.5 -68.5
c0 -31.333 -4.66699 -55.666 -14 -72.999s-26.333 -39.666 -51 -66.999l-4 -4l-68 -72c-41.333 -43.333 -72.5 -82.5 -93.5 -117.5s-33.833 -66.167 -38.5 -93.5c-3.33301 -19.333 -6 -41 -8 -65s-3.33301 -44.667 -4 -62h410z" />
    <glyph glyph-name="three" unicode="3" 
d="M171 346c31.333 0 57.5 -1.83203 78.5 -5.49902s36.833 -11.834 47.5 -24.501c6.66699 -8 11 -19 13 -33s3 -29.333 3 -46c0 -24 -0.5 -43.667 -1.5 -59s-4 -29.333 -9 -42s-12.667 -22.667 -23 -30s-24.166 -11 -41.499 -11c-18 0 -32.5 3.66699 -43.5 11
s-18.833 17 -23.5 29s-7.66699 24.5 -9 37.5s-2 29.5 -2 49.5c-0.666992 12 -1 21 -1 27h-131v-44c0 -27.333 2.5 -53.333 7.5 -78s14.5 -47.667 28.5 -69s35.167 -38.833 63.5 -52.5s64.166 -20.5 107.499 -20.5c74.667 0 129.667 20.333 165 61s53 99 53 175
c0 56 -10.333 99.333 -31 130s-48 48 -82 52v2c17.333 2.66699 32.333 9 45 19s22.834 22.333 30.501 37s13.334 30.5 17.001 47.5s5.5 34.167 5.5 51.5c0 61.333 -16.833 108.833 -50.5 142.5s-84.834 50.5 -153.501 50.5c-66 0 -115.5 -17.167 -148.5 -51.5
s-49.5 -83.5 -49.5 -147.5c0 -3.33301 0.333008 -7 1 -11v-12h131v53c0.666992 22 7.66699 37.333 21 46s28.666 13 45.999 13c44.667 0 67 -28 67 -84c0 -22.667 -2.83301 -41.667 -8.5 -57s-17.167 -27 -34.5 -35c-13.333 -6 -35.333 -9.33301 -66 -10
c-10 0 -17.333 -0.333008 -22 -1v-110z" />
    <glyph glyph-name="four" unicode="4" 
d="M126 262l138 304h2v-304h-140zM250 738l-227 -476v-110h243v-152h140v152h64v110h-64v476h-156z" />
    <glyph glyph-name="five" unicode="5" 
d="M168 345c2 16 9.83301 29.166 23.5 39.499s29.167 15.5 46.5 15.5c26 0 46 -9 60 -27s21 -51 21 -99c0 -2 -0.333008 -5.33301 -1 -10v-12v-15c-0.666992 -23.333 -1.66699 -42.166 -3 -56.499s-4.5 -28.333 -9.5 -42s-13 -24.334 -24 -32.001s-25.5 -11.5 -43.5 -11.5
c-16 0.666992 -28.833 4.83398 -38.5 12.501s-16.667 17.167 -21 28.5s-7 23.166 -8 35.499s-1.83301 27.5 -2.5 45.5v19h-131c0 -90.667 15.333 -155.167 46 -193.5s86.667 -57.5 168 -57.5c76 0 129.5 22 160.5 66s46.5 110.667 46.5 200c0 34 -2.33301 65.833 -7 95.5
s-13.5 56.834 -26.5 81.501s-32 44.5 -57 59.5s-57.167 22.5 -96.5 22.5c-24 0 -44 -3 -60 -9s-32.333 -17 -49 -33l9 160h253v110h-361l-19 -393h124z" />
    <glyph glyph-name="six" unicode="6" 
d="M182 260c0 21.333 0.500977 38.999 1.50098 52.999s3.66699 27.333 8 40s11.333 22.834 21 30.501s22.5 11.5 38.5 11.5c28.667 0 47.167 -11 55.5 -33s12.5 -56 12.5 -102c0 -64.667 -3.83301 -108.167 -11.5 -130.5s-25.5 -33.833 -53.5 -34.5
c-30.667 0 -50.334 12.5 -59.001 37.5s-13 67.5 -13 127.5zM42.001 269.999c0 -96 14.6699 -166 44.0029 -210c16 -24.667 37.667 -43.334 65 -56.001s61 -19 101 -19c78 0 132 22.833 162 68.5s45 117.834 45 216.501c0 78.667 -13.5 137.5 -40.5 176.5
s-69.833 58.5 -128.5 58.5c-28 0 -49.167 -4 -63.5 -12s-28.833 -19.667 -43.5 -35l-3 -3v48v15c0.666992 15.333 1.66699 29.5 3 42.5s4.33301 25.5 9 37.5s12 22.167 22 30.5s23.333 13.166 40 14.499c25.333 0 41.5 -5.33301 48.5 -16s10.833 -25 11.5 -43h130
c0 58 -16.5 100.667 -49.5 128s-78.167 41 -135.5 41c-38.667 0 -71.334 -4.66699 -98.001 -14s-48.834 -25.333 -66.501 -48s-30.834 -53.667 -39.501 -93s-13 -88.666 -13 -147.999v-180z" />
    <glyph glyph-name="seven" unicode="7" 
d="M32 628h298.997c-15.333 -23.333 -31 -51.166 -47 -83.499s-29 -61.166 -39 -86.499c-33.333 -84.667 -60.166 -164 -80.499 -238s-33.166 -147.333 -38.499 -220h144c3.33301 83.333 18 174.666 44 273.999c16.667 66 36.334 129.167 59.001 189.5
s49.667 118.166 81 173.499v101h-422v-110z" />
    <glyph glyph-name="eight" unicode="8" 
d="M181 208c0 53.333 3.83301 90.501 11.5 111.501s26.834 31.833 57.501 32.5c16 0 28.833 -3.33301 38.5 -10s16.667 -16 21 -28s7.16602 -25.167 8.49902 -39.5s2 -32.5 2 -54.5c0 -20.667 -0.5 -37.334 -1.5 -50.001s-3.5 -24.5 -7.5 -35.5s-10.833 -20 -20.5 -27
s-22.5 -11.167 -38.5 -12.5c-31.333 0.666992 -51 10 -59 28s-12 46.333 -12 85zM251 452.001c-13.333 0 -24.335 2.83301 -33.002 8.5s-15.167 13.167 -19.5 22.5s-7.16602 19.333 -8.49902 30s-2 22.667 -2 36c0 29.333 4.66699 52.333 14 69s26.333 25 51 25
c18.667 0 33.334 -7 44.001 -21s16 -35 16 -63c0 -14.667 -0.5 -27.667 -1.5 -39s-3.5 -22.333 -7.5 -33s-10.333 -19.167 -19 -25.5s-20 -9.5 -34 -9.5zM145.998 406.001c-38.667 -17.333 -65.834 -40.1699 -81.501 -68.5029s-23.5 -70.166 -23.5 -125.499
c0 -78 16.333 -135.333 49 -172s87.667 -55 165 -55c66 0 116.667 18 152 54s53 94 53 174c0 56.667 -8.33301 100.167 -25 130.5s-45.667 49.833 -87 58.5v2c36.667 14.667 61.667 33.834 75 57.501s20 56.5 20 98.5c0 65.333 -14.833 113.833 -44.5 145.5
s-78.5 47.5 -146.5 47.5c-34 0 -63.5 -5 -88.5 -15s-45.167 -23.333 -60.5 -40s-26.666 -35.167 -33.999 -55.5s-11 -41.166 -11 -62.499c0 -50.667 6.66699 -88 20 -112s36 -44.667 68 -62z" />
    <glyph glyph-name="nine" unicode="9" 
d="M319 478c0 -21.333 -0.5 -38.999 -1.5 -52.999s-3.5 -27.333 -7.5 -40s-10.833 -22.834 -20.5 -30.501s-22.834 -11.5 -39.501 -11.5c-28.667 0 -47.167 11 -55.5 33s-12.5 56 -12.5 102c0 64.667 3.83301 108.167 11.5 130.5s25.5 33.833 53.5 34.5
c30.667 0 50.334 -12.5 59.001 -37.5s13 -67.5 13 -127.5zM459 468.001c0 96 -15.3359 167.499 -46.0029 214.499s-85 70.5 -163 70.5s-132.167 -22.833 -162.5 -68.5s-45.5 -117.834 -45.5 -216.501c0 -78 13.667 -136.667 41 -176s70.333 -59 129 -59
c28 0 49.167 4 63.5 12s28.833 19.667 43.5 35l3 3v-48v-16c-0.666992 -18 -1.66699 -33.167 -3 -45.5s-4.16602 -24.666 -8.49902 -36.999s-11.5 -22.333 -21.5 -30s-23.333 -11.5 -40 -11.5c-25.333 0 -42.666 7 -51.999 21c-3.33301 4.66699 -5.5 10 -6.5 16
s-1.83301 13.333 -2.5 22h-130c0 -58 16.667 -100.667 50 -128s78.333 -41 135 -41c38.667 0 71.334 4.83301 98.001 14.5s48.667 25.834 66 48.501s30.333 53.5 39 92.5s13 88.167 13 147.5v180z" />
    <glyph glyph-name="colon" unicode=":" horiz-adv-x="278" 
d="M205 424v132h-132v-132h132zM205 0v132h-132v-132h132z" />
    <glyph glyph-name="semicolon" unicode=";" horiz-adv-x="278" 
d="M73 -145c88 10.667 132 60.001 132 148.001v129h-132v-132h70c0 -29.333 -6.16699 -52.833 -18.5 -70.5s-29.5 -27.834 -51.5 -30.501v-44zM205 424.001v132h-132v-132h132z" />
    <glyph glyph-name="less" unicode="&#x3c;" 
d="M162 249l297 167v111l-417 -227v-99l417 -225v111z" />
    <glyph glyph-name="equal" unicode="=" 
d="M475 401h-449v-110h449v110zM475 206h-449v-110h449v110z" />
    <glyph glyph-name="greater" unicode="&#x3e;" 
d="M42 87v-111l417 225v99l-417 227v-111l297 -167z" />
    <glyph glyph-name="question" unicode="?" 
d="M176 553c0.666992 5.33301 1.00293 14 1.00293 26c0.666992 13.333 1.66699 24.833 3 34.5s4.33301 18.834 9 27.501c5.33301 8.66699 12.166 14.667 20.499 18s20.166 5 35.499 5c20 0 34.5 -6.33301 43.5 -19s13.5 -33.334 13.5 -62.001
c0 -24.667 -2.5 -44.167 -7.5 -58.5s-15.5 -32.166 -31.5 -53.499c-8 -10.667 -20 -25.334 -36 -44.001c-24 -29.333 -41.833 -54.666 -53.5 -75.999s-18.834 -48.333 -21.501 -81c-1.33301 -12.667 -2.16602 -24 -2.49902 -34s-0.5 -21.667 -0.5 -35h117
c0 27.333 2.5 51.833 7.5 73.5s14.5 41.167 28.5 58.5l35 38l34 38c25.333 32 43.166 59.833 53.499 83.5s15.5 53.5 15.5 89.5c0 57.333 -17.333 102.666 -52 135.999s-81.667 50 -141 50c-62.667 0 -111 -16 -145 -48s-51 -80.667 -51 -146l1 -10v-11h124zM147.003 130
v-130h127v130h-127z" />
    <glyph glyph-name="at" unicode="@" horiz-adv-x="833" 
d="M654 148c-31.333 -28.667 -64.0039 -51.1709 -98.0039 -67.5039s-69.667 -24.5 -107 -24.5c-46.667 0 -90.167 7.66699 -130.5 23s-75.833 37.333 -106.5 66s-54.334 62.834 -71.001 102.501s-25 83.167 -25 130.5c0 45.333 7.66699 87.333 23 126
s37.166 72.167 65.499 100.5s62 50.333 101 66s81.167 23.5 126.5 23.5c84.667 0 153.334 -24 206.001 -72s79 -114.333 79 -199c-0.666992 -22 -4.66699 -44.5 -12 -67.5s-15 -40.167 -23 -51.5c-10.667 -15.333 -22.667 -29.166 -36 -41.499s-24 -19.833 -32 -22.5
c-0.666992 0 -1.66699 -0.333008 -3 -1h-4c-9.33301 0 -14 5 -14 15c0 0.666992 0.333008 1.66699 1 3v4l53 308h-98l-11 -53c-28.667 40.667 -71 61 -127 61c-31.333 0 -60.166 -6.5 -86.499 -19.5s-48.833 -30.667 -67.5 -53s-33 -47.833 -43 -76.5
s-15 -58.334 -15 -89.001c0 -52.667 15.333 -96.5 46 -131.5s71.667 -52.5 123 -52.5c39.333 0 80.333 20.333 123 61l2 -2c0 -2 -0.333008 -4.66699 -1 -8v-6c0 -14.667 4.33301 -26.5 13 -35.5s18.667 -13.5 30 -13.5c14 0 29.5 2.5 46.5 7.5s33.667 11.833 50 20.5
s32 18.334 47 29.001s27.167 21 36.5 31c28 28.667 48.333 60.667 61 96s19 74.333 19 117c0 46 -10.167 88.5 -30.5 127.5s-48.833 73.833 -85.5 104.5c-33.333 28.667 -70.666 49.834 -111.999 63.501s-85.333 20.5 -132 20.5c-54.667 0 -106.167 -9.66699 -154.5 -29
s-90.666 -46.666 -126.999 -81.999s-64.666 -77 -84.999 -125s-30.5 -99.333 -30.5 -154c0 -56 10.333 -108.167 31 -156.5s49.5 -90.5 86.5 -126.5s80.167 -63.833 129.5 -83.5s101.333 -29.5 156 -29.5c62.667 0 120.334 14.667 173.001 44s98 70 136 122h-96z
M503.996 369.996c-2.66699 -30 -14 -58.001 -34 -84.001s-45.333 -39 -76 -39h-7c-2.66699 0.666992 -5 1 -7 1c-21.333 3.33301 -38.5 14 -51.5 32s-19.5 43.667 -19.5 77c2 32.667 13.833 61.334 35.5 86.001s47.5 38.334 77.5 41.001c28 0 48.833 -9.33301 62.5 -28
s20.5 -42.334 20.5 -71.001l-1 -7v-8z" />
    <glyph glyph-name="A" unicode="A" horiz-adv-x="556" 
d="M159 0l37 190h164l37 -190h150l-170 750h-189l-179 -750h150zM260 513c4 18.667 7.99805 47 11.998 85l2 19c0.666992 12.667 2.33398 29.334 5.00098 50.001h2c2.66699 -20.667 4.33398 -37.334 5.00098 -50.001l2 -19c4 -38 8 -66.333 12 -85l38 -213h-120z" />
    <glyph glyph-name="B" unicode="B" horiz-adv-x="556" 
d="M205 110v227.001h54c41.333 0 68.833 -8.5 82.5 -25.5s20.5 -46.833 20.5 -89.5c0 -24.667 -2.83301 -46.334 -8.5 -65.001s-17.167 -31.667 -34.5 -39c-8 -3.33301 -17.5 -5.5 -28.5 -6.5s-29.5 -1.5 -55.5 -1.5h-30zM205 447.001l-0.000976562 193h65
c30 -0.666992 50.167 -7.66699 60.5 -21s15.5 -35 15.5 -65c0 -39.333 -5 -66.333 -15 -81c-8.66699 -11.333 -20.667 -18.5 -36 -21.5s-36.666 -4.5 -63.999 -4.5h-26zM311.999 0.000976562c50 0 89.498 10.668 118.498 32.001s50.833 55.666 65.5 102.999
c6.66699 25.333 10 56 10 92c0 50.667 -8.66699 91 -26 121s-45 47.667 -83 53v2c34.667 12.667 58.334 32.5 71.001 59.5s19 59.5 19 97.5c0 29.333 -2.5 54.5 -7.5 75.5s-14.833 40.833 -29.5 59.5c-18 22.667 -39.667 37.5 -65 44.5s-56.666 10.5 -93.999 10.5h-226v-750
h247z" />
    <glyph glyph-name="C" unicode="C" horiz-adv-x="556" 
d="M371 267c0 -4.66699 -0.332031 -12.332 -0.999023 -22.999c0 -18.667 -0.666992 -35.834 -2 -51.501s-4.33301 -31 -9 -46s-11.667 -27.333 -21 -37s-22 -14.5 -38 -14.5c-22.667 0 -40.834 5.16699 -54.501 15.5s-23.834 23.666 -30.501 39.999s-11 33.166 -13 50.499
s-3 36.333 -3 57v208c0 28 1 52.5 3 73.5s6.33301 40.333 13 58s16.834 31.667 30.501 42s31.834 15.5 54.501 15.5c14 0 25.333 -3.33301 34 -10s15.167 -15.667 19.5 -27s7.5 -22.5 9.5 -33.5s3.66699 -25.5 5 -43.5c0.666992 -12 1.33398 -20 2.00098 -24h138
c0 18.667 -1 37.667 -3 57c-10 127.333 -78.333 192 -205 194c-54 0 -97.333 -8 -130 -24s-56.834 -38.5 -72.501 -67.5s-26.167 -62 -31.5 -99s-9 -84.5 -11 -142.5v-107c0 -59.333 2.33301 -108.5 7 -147.5s15 -73.5 31 -103.5s40.667 -53.333 74 -70
s77.666 -25 132.999 -25c38 0 70 6 96 18s47 28.833 63 50.5s27.833 46.834 35.5 75.501s12.5 61.334 14.5 98.001c0 2.66699 0.666992 10 2 22c0.666992 12 1 19 1 21h-141z" />
    <glyph glyph-name="D" unicode="D" horiz-adv-x="611" 
d="M212 110v530.001h92c40.667 0 67.834 -18.167 81.501 -54.5s20.5 -100.5 20.5 -192.5c0 -61.333 -1.16699 -108.833 -3.5 -142.5s-7.83301 -60.834 -16.5 -81.501s-21.834 -35.667 -39.501 -45s-42.167 -14 -73.5 -14h-61zM331 0.000976562
c22 0 41.332 1.33398 57.999 4.00098s32 8 46 16c27.333 16 49 37.667 65 65s27.5 58.166 34.5 92.499s11.333 68.5 13 102.5s2.5 76 2.5 126c0 66 -3 119.5 -9 160.5s-16.667 73.833 -32 98.5c-19.333 31.333 -44.666 54.333 -75.999 69c-12 6 -24 10.167 -36 12.5
s-23 3.5 -33 3.5h-292v-750h259z" />
    <glyph glyph-name="E" unicode="E" 
d="M458 0v110h-254v231h234v110h-234v189h254v110h-394v-750h394z" />
    <glyph glyph-name="F" unicode="F" 
d="M213 0v340h241v110h-241v190h257v110h-397v-750h140z" />
    <glyph glyph-name="G" unicode="G" horiz-adv-x="611" 
d="M55 328c0 -59.333 2.33301 -108.499 7 -147.499s15 -73.5 31 -103.5s40.667 -53.333 74 -70s77.666 -25 132.999 -25c29.333 2 55.5 10.833 78.5 26.5s40.833 41.5 53.5 77.5h2v-86h105v403h-233v-110h97c0 -64 -8 -113 -24 -147s-42.333 -51 -79 -51
c-22.667 0 -40.834 5.16699 -54.501 15.5s-23.834 23.666 -30.501 39.999s-11 33.166 -13 50.499s-3 36.333 -3 57v208c0 28 1 52.5 3 73.5s6.33301 40.333 13 58s16.834 31.667 30.501 42s31.834 15.5 54.501 15.5c22.667 -0.666992 40.834 -4.66699 54.501 -12
s23.834 -17.166 30.501 -29.499s11 -26 13 -41s3.33301 -34.167 4 -57.5h140v18c-0.666992 32.667 -3 57 -7 73c-15.333 61.333 -42 103.5 -80 126.5s-89.667 34.833 -155 35.5c-54 0 -97.333 -8 -130 -24s-56.834 -38.5 -72.501 -67.5s-26.167 -62 -31.5 -99
s-9 -84.5 -11 -142.5v-107z" />
    <glyph glyph-name="H" unicode="H" horiz-adv-x="611" 
d="M208 0v343h196v-343h140v750h-140v-297h-196v297h-140v-750h140z" />
    <glyph glyph-name="I" unicode="I" horiz-adv-x="278" 
d="M209 0v750h-140v-750h140z" />
    <glyph glyph-name="J" unicode="J" horiz-adv-x="444" 
d="M8 238l0.00195312 -18.998c-0.666992 -8.66699 -1 -15.334 -1 -20.001c0 -30.667 1.83301 -59 5.5 -85s8.83398 -44.333 15.501 -55c18 -27.333 39.667 -47 65 -59s51.666 -18 78.999 -18c40.667 0 74.667 3.16699 102 9.5s50.333 19.5 69 39.5
c17.333 18.667 28.5 41.167 33.5 67.5s7.5 61.166 7.5 104.499v547h-140v-576c0 -26.667 -2.83301 -46.5 -8.5 -59.5s-19.834 -19.5 -42.501 -19.5c-16 0 -27.333 4.5 -34 13.5s-10.334 21.167 -11.001 36.5v93h-140z" />
    <glyph glyph-name="K" unicode="K" horiz-adv-x="556" 
d="M208 0v215l49 81l132 -296h158l-194 428l185 322h-158l-82 -153c-20.667 -38 -38 -71 -52 -99s-26 -55 -36 -81h-2v333h-140v-750h140z" />
    <glyph glyph-name="L" unicode="L" 
d="M468 0v110h-260v640h-140v-750h400z" />
    <glyph glyph-name="M" unicode="M" horiz-adv-x="778" 
d="M207 236c0 165.333 -3.99902 314.332 -11.999 446.999h5l147 -683h85l150 683h2c-8 -132.667 -12 -281.667 -12 -447v-236h140v750h-222l-75 -348c-4.66699 -22 -8.5 -45.333 -11.5 -70s-6.5 -59 -10.5 -103h-2c-6.66699 64.667 -15.334 122.334 -26.001 173.001l-75 348
h-223v-750h140v236z" />
    <glyph glyph-name="N" unicode="N" horiz-adv-x="611" 
d="M403 603c0 -56.667 2.33496 -126.999 7.00195 -210.999c3.33301 -61.333 8 -132.333 14 -213h-2c-16.667 60 -32.834 113.5 -48.501 160.5s-32.834 92.833 -51.501 137.5l-109 273h-145v-750h140v141c0 26.667 -0.5 57.5 -1.5 92.5s-2.83301 74.167 -5.5 117.5
c-2 33.333 -4.16699 66.166 -6.5 98.499l-8.5 115.5h2c17.333 -61.333 33.833 -115.5 49.5 -162.5s32.5 -92.167 50.5 -135.5l109 -267h146v750h-140v-147z" />
    <glyph glyph-name="O" unicode="O" horiz-adv-x="611" 
d="M61 328c0 -59.333 2.33691 -108.5 7.00391 -147.5s15 -73.5 31 -103.5s40.667 -53.333 74 -70s77.666 -25 132.999 -25s99.666 8.33301 132.999 25s58 40 74 70s26.333 64.5 31 103.5s7 88.167 7 147.5v107c-2 58 -5.66699 105.5 -11 142.5s-15.833 70 -31.5 99
s-39.834 51.5 -72.501 67.5s-76 24 -130 24s-97.333 -8 -130 -24s-56.834 -38.5 -72.501 -67.5s-26.167 -62 -31.5 -99s-9 -84.5 -11 -142.5v-107zM205.004 466c0 28 0.999023 52.502 2.99902 73.502s6.33301 40.333 13 58s16.834 31.667 30.501 42s31.834 15.5 54.501 15.5
c23.333 0 42 -6.16699 56 -18.5s24.167 -28 30.5 -47s10.333 -38.5 12 -58.5s2.5 -43 2.5 -69v-192c0 -25.333 -0.833008 -47 -2.5 -65s-5.5 -35.5 -11.5 -52.5s-16.167 -30.833 -30.5 -41.5s-33.166 -16 -56.499 -16c-22.667 0 -40.834 5.16699 -54.501 15.5
s-23.834 23.666 -30.501 39.999s-11 33.166 -13 50.499s-3 36.333 -3 57v208z" />
    <glyph glyph-name="P" unicode="P" horiz-adv-x="556" 
d="M208 640l63.999 0.00195312c42.667 0 72.167 -6.33301 88.5 -19s24.5 -39.334 24.5 -80.001c0 -42.667 -8.66699 -72.834 -26 -90.501s-42.666 -26.5 -75.999 -26.5h-75v216zM207.999 0.00195312l0.000976562 314h94c32 0 61.167 3.5 87.5 10.5s49.5 18.5 69.5 34.5
c24.667 19.333 42.5 44.833 53.5 76.5s16.5 65.5 16.5 101.5c0 28 -3 54.5 -9 79.5s-15.833 47.667 -29.5 68s-31.834 36.333 -54.501 48s-50 17.5 -82 17.5h-286v-750h140z" />
    <glyph glyph-name="Q" unicode="Q" horiz-adv-x="611" 
d="M587 -5l-76.998 77c16 26 26.833 60.5 32.5 103.5s8.5 93.833 8.5 152.5v107c-2 58 -5.66699 105.5 -11 142.5s-15.833 70 -31.5 99s-39.834 51.5 -72.501 67.5s-76 24 -130 24s-97.333 -8 -130 -24s-56.834 -38.5 -72.501 -67.5s-26.167 -62 -31.5 -99
s-9 -84.5 -11 -142.5v-107c0 -59.333 2.33301 -108.5 7 -147.5s15 -73.5 31 -103.5s40.667 -53.333 74 -70s77.666 -25 132.999 -25c30 0 55.333 1.66699 76 5s39.334 9.33301 56.001 18l78 -76zM315.002 126l26.998 -25.998c-11.333 -3.33301 -23.333 -5 -36 -5
c-22.667 0 -40.834 5.16699 -54.501 15.5s-23.834 23.666 -30.501 39.999s-11 33.166 -13 50.499s-3 36.333 -3 57v208c0 28 1 52.5 3 73.5s6.33301 40.333 13 58s16.834 31.667 30.501 42s31.834 15.5 54.501 15.5s40.834 -5.16699 54.501 -15.5s23.834 -24.333 30.501 -42
s11 -37 13 -58s3 -45.5 3 -73.5l-1 -208c0 -25.333 -2.66699 -50.333 -8 -75l-7 7z" />
    <glyph glyph-name="R" unicode="R" horiz-adv-x="611" 
d="M231 323c30 0 53.6631 -0.5 70.9961 -1.5s33.333 -3.83301 48 -8.5c10.667 -3.33301 19.334 -8.83301 26.001 -16.5s11.5 -16.834 14.5 -27.501s4.83301 -21.167 5.5 -31.5s1.33398 -24.166 2.00098 -41.499v-6v-29c0.666992 -36.667 1.83398 -68.334 3.50098 -95.001
s5.5 -48.667 11.5 -66h154v14c-6.66699 4 -12 13.833 -16 29.5s-7 34.667 -9 57s-3.33301 45.333 -4 69s-1 50.834 -1 81.501c0 38.667 -8.16699 69.667 -24.5 93s-44.166 37.666 -83.499 42.999v2c22.667 3.33301 41.5 10.5 56.5 21.5s26.833 24.833 35.5 41.5
s14.667 34.834 18 54.501s5 40.834 5 63.501c0 33.333 -5.16699 61.666 -15.5 84.999s-25 42 -44 56s-41.333 24 -67 30s-54.5 9 -86.5 9h-265v-750h140v323h25zM205.996 640h104c30 -0.666992 52.167 -7.5 66.5 -20.5s21.5 -39.167 21.5 -78.5
c0 -35.333 -7.5 -61.833 -22.5 -79.5s-34.833 -27.167 -59.5 -28.5h-110v207z" />
    <glyph glyph-name="S" unicode="S" horiz-adv-x="556" 
d="M489 522l-0.00195312 8.00488c0 28.667 -1.66699 55 -5 79s-11.833 48.333 -25.5 73s-35.667 45.167 -66 61.5s-70.833 24.5 -121.5 24.5c-73.333 0 -128.333 -16.833 -165 -50.5s-55 -82.834 -55 -147.501c0 -41.333 12 -79.666 36 -114.999
c17.333 -22 36.833 -41.667 58.5 -59s50.5 -37.666 86.5 -60.999c34.667 -22.667 60 -40.334 76 -53.001c18.667 -12.667 32.667 -27 42 -43s14 -34.667 14 -56c0 -58.667 -29 -88 -87 -88c-31.333 0 -53.833 10.667 -67.5 32s-20.5 52.666 -20.5 93.999v44h-140v-55
c0 -34.667 4.16699 -65.834 12.5 -93.501s21.5 -51.5 39.5 -71.5s41.667 -35.5 71 -46.5s64.333 -16.5 105 -16.5c70 0 126 18.667 168 56s63 90.666 63 159.999c0 33.333 -4.66699 62.166 -14 86.499s-25.666 47.833 -48.999 70.5
c-9.33301 9.33301 -21.5 19.666 -36.5 30.999l-44.5 32.5l-43 29.5l-46 30l-2 1c-27.333 18 -47.166 33.833 -59.499 47.5s-18.5 33.167 -18.5 58.5c0 24.667 6.66699 42.5 20 53.5s32.333 16.5 57 16.5c33.333 0 55.333 -11.333 66 -34s16 -55.667 16 -99h135z" />
    <glyph glyph-name="T" unicode="T" 
d="M17 640h164v-640h140v640h163v110h-467v-110z" />
    <glyph glyph-name="U" unicode="U" horiz-adv-x="611" 
d="M404 239c0 -22 -0.833008 -41 -2.5 -57s-5.66699 -30.5 -12 -43.5s-16 -23.5 -29 -31.5s-30.5 -12 -52.5 -12c-22.667 0 -40.834 4 -54.501 12s-23.667 18.5 -30 31.5s-10.5 27.5 -12.5 43.5s-3 35 -3 57v511h-140v-523c0 -86 17.5 -148.333 52.5 -187
s97.167 -58 186.5 -58c88.667 0 150.334 19.333 185.001 58s52 101 52 187v523h-140v-511z" />
    <glyph glyph-name="V" unicode="V" horiz-adv-x="556" 
d="M307 269c-6.66699 -34.667 -12.332 -77.334 -16.999 -128.001c0 -2 -0.666992 -8.33301 -2 -19c-2.66699 -19.333 -4 -33.666 -4 -42.999h-2c0 9.33301 -1.33301 23.666 -4 42.999c-1.33301 10.667 -2 17 -2 19c-4.66699 50.667 -10.334 93.334 -17.001 128.001l-88 481
h-150l166 -750h187l162 750h-150z" />
    <glyph glyph-name="W" unicode="W" horiz-adv-x="833" 
d="M475 750l-115.999 -0.000976562l-68 -388c-6.66699 -34.667 -14.334 -94.667 -23.001 -180c-3.33301 -36.667 -6.33301 -65.667 -9 -87h-2c-1.33301 24 -2.66602 42 -3.99902 54c-6 76.667 -13 140.667 -21 192l-63 409h-145l143 -750h168l50 296
c6.66699 35.333 13.667 88.666 21 159.999c4 39.333 7 65.666 9 78.999h2c2 -13.333 5 -39.666 9 -78.999c7.33301 -71.333 14.333 -124.666 21 -159.999l56 -296h168l139 750h-145l-56 -409c-8 -51.333 -15 -115.333 -21 -192c0 -2.66699 -0.666992 -11.667 -2 -27
c-1.33301 -14.667 -2.33301 -23.667 -3 -27h-2l-7 72c-4 44 -7.83301 81.333 -11.5 112s-7.83398 58.334 -12.501 83.001z" />
    <glyph glyph-name="X" unicode="X" horiz-adv-x="556" 
d="M359 380l179.999 370h-158l-54 -127c-1.33301 -2.66699 -4.33301 -9.66699 -9 -21c-11.333 -24.667 -20 -45.5 -26 -62.5s-9.66699 -34.833 -11 -53.5h-3c0 14 -2.16699 27.5 -6.5 40.5s-10.5 29.167 -18.5 48.5l-2 5l-76 170h-157l177 -370l-184 -380h153l62 138
c2.66699 6 4.66699 10.333 6 13c12 27.333 21.333 50.333 28 69s11.334 38 14.001 58h2c6 -32 15.667 -63.667 29 -95l80 -183h160z" />
    <glyph glyph-name="Y" unicode="Y" horiz-adv-x="556" 
d="M165 750l-153 0.00195312l195 -431v-319h140v319l198 431h-153l-67 -170c-1.33301 -3.33301 -3.33301 -8 -6 -14c-10.667 -26.667 -19 -48.834 -25 -66.501s-11 -38.167 -15 -61.5h-2c-5.33301 35.333 -16.333 73.666 -33 114.999z" />
    <glyph glyph-name="Z" unicode="Z" 
d="M33 0h435v110h-235c-24 0 -42 -1 -54 -3c8.66699 10.667 19 27.334 31 50.001l8 16l241 465v112h-410v-110h210c24 0 42 1 54 3c-8.66699 -10.667 -19 -27.334 -31 -50.001l-8 -16l-241 -465v-112z" />
    <glyph glyph-name="bracketleft" unicode="[" horiz-adv-x="333" 
d="M280 -94v76h-89v692h89v76h-199v-844h199z" />
    <glyph glyph-name="backslash" unicode="\" horiz-adv-x="250" 
d="M51 750h-87l236 -844h87z" />
    <glyph glyph-name="bracketright" unicode="]" horiz-adv-x="333" 
d="M53 750v-76h89v-692h-89v-76h199v844h-199z" />
    <glyph glyph-name="asciicircum" unicode="^" 
d="M114 326l136 279l136 -279l104 47l-180 377h-120l-180 -377z" />
    <glyph glyph-name="underscore" unicode="_" 
d="M500 -125v50h-500v-50h500z" />
    <glyph glyph-name="grave" unicode="`" horiz-adv-x="333" 
d="M1 775l148 -146h101l-94 146h-155z" />
    <glyph glyph-name="a" unicode="a" 
d="M440 0c-7.33301 27.333 -10.998 53.668 -10.998 79.001v333c0 24.667 -2.16699 46.5 -6.5 65.5s-12.833 36.167 -25.5 51.5s-31.5 27.5 -56.5 36.5s-57.5 13.5 -97.5 13.5c-38.667 0 -71 -4.16699 -97 -12.5s-46.333 -20.5 -61 -36.5s-24.834 -34.833 -30.501 -56.5
s-8.5 -47.167 -8.5 -76.5h124c0 28.667 4.66699 49.5 14 62.5s27.333 19.5 54 19.5c19.333 0 33.666 -1.83301 42.999 -5.5s15.333 -11.5 18 -23.5c2 -8 3 -15.333 3 -22c0 -16 -5.33301 -29.5 -16 -40.5s-27.667 -21.5 -51 -31.5c-6 -2.66699 -10.667 -4.66699 -14 -6
c-31.333 -12.667 -56.333 -23.667 -75 -33s-36.167 -21 -52.5 -35s-29 -31.5 -38 -52.5s-13.5 -46.167 -13.5 -75.5c0 -58 12 -100.667 36 -128s62.333 -41 115 -41c21.333 0 42 6.33301 62 19c18.667 11.333 36 29.333 52 54h2v-8
c-0.666992 -4.66699 -1 -7.33398 -1 -8.00098c0 -16 3 -30 9 -42h123zM299.002 236.002c0 -4.66699 -0.333008 -14.001 -1 -28.001c0 -18 -0.5 -33.5 -1.5 -46.5s-3.5 -25.333 -7.5 -37s-10.5 -21.167 -19.5 -28.5s-21.167 -11 -36.5 -11
c-22.667 0 -38.5 6.16699 -47.5 18.5s-13.5 30.166 -13.5 53.499c0 14.667 1.5 27.834 4.5 39.501s8.83301 21.167 17.5 28.5c16 12.667 40 29.334 72 50.001l33 22v-61z" />
    <glyph glyph-name="b" unicode="b" 
d="M194 354v9.00098v10c0 13.333 0.666992 26 2 38s4.33301 23.167 9 33.5s11 18.666 19 24.999s18.333 9.5 31 9.5c24 0 39.333 -7 46 -21s10.667 -36.333 12 -67c0 -7.33301 0.333008 -14.333 1 -21v-188c-1.33301 -30 -6.5 -53.667 -15.5 -71s-22.833 -26 -41.5 -26
c-42 0 -63 33.333 -63 100v169zM64 0.000976562l123.998 0.00195312v60h2c14 -26.667 30.167 -45.5 48.5 -56.5s41.833 -17.167 70.5 -18.5c26 0 47.833 5.33301 65.5 16s31.334 25.167 41.001 43.5s16.667 38.166 21 59.499s6.83301 45 7.5 71v204
c-1.33301 74 -13 125.5 -35 154.5s-55.333 44.167 -100 45.5c-28.667 0 -52 -5.5 -70 -16.5s-33.333 -29.5 -46 -55.5h-2c0.666992 9.33301 1.33398 19.666 2.00098 30.999c0.666992 16 1 26.667 1 32v180h-130v-750z" />
    <glyph glyph-name="c" unicode="c" horiz-adv-x="444" 
d="M403 368v44.999c0 22.667 -3.33301 43.834 -10 63.501s-17 37.167 -31 52.5s-32.5 27.5 -55.5 36.5s-50.167 13.5 -81.5 13.5c-26 0 -49.5 -3.16699 -70.5 -9.5s-39.5 -17 -55.5 -32s-28.333 -35.667 -37 -62s-13 -58.5 -13 -96.5v-183
c0 -74.667 14.833 -128.5 44.5 -161.5s73.5 -49.5 131.5 -49.5c62.667 0 108 15.333 136 46s42 76.334 42 137.001v52h-130v-52l-1 -7c-2 -26.667 -5.5 -45.834 -10.5 -57.501s-16.167 -17.834 -33.5 -18.501c-18.667 2.66699 -31.5 12.334 -38.5 29.001s-10.5 52 -10.5 106
v133c0 46 3 78.5 9 97.5s19.333 28.5 40 28.5c28 0 43 -16 45 -48v-63h130z" />
    <glyph glyph-name="d" unicode="d" 
d="M303 185c0 -66.667 -20.998 -100.001 -62.998 -100.001c-18.667 0 -32.334 8.66699 -41.001 26s-14 41 -16 71v188c0.666992 6.66699 1 13.667 1 21c2 30.667 6.16699 53 12.5 67s21.5 21 45.5 21c12.667 0 23.167 -3.16699 31.5 -9.5s14.666 -14.666 18.999 -24.999
s7.33301 -21.5 9 -33.5s2.5 -24.667 2.5 -38l-1 -10v-9v-169zM303.002 -0.000976562h129.999v750h-130v-193c0 -18 1.33301 -34.667 4 -50h-2c-12.667 26 -28 44.5 -46 55.5s-41.333 16.5 -70 16.5c-44.667 -1.33301 -78.167 -16.5 -100.5 -45.5
s-34.166 -80.5 -35.499 -154.5v-204c0.666992 -25.333 3.16699 -49 7.5 -71s11.5 -42 21.5 -60s23.833 -32.333 41.5 -43s39.5 -16 65.5 -16c27.333 1.33301 49.833 7.33301 67.5 18s32.5 29.667 44.5 57h2v-60z" />
    <glyph glyph-name="e" unicode="e" 
d="M53 222c0 -84 16.332 -144.5 48.999 -181.5s85.667 -55.5 159 -55.5c62 0 107.5 17.333 136.5 52s43.5 86 43.5 154h-130c0 -38 -4.5 -65.167 -13.5 -81.5s-24.5 -24.5 -46.5 -24.5s-38.667 6.16699 -50 18.5s-17.333 35.5 -18 69.5v82h260v76
c0 43.333 -2.16699 79.5 -6.5 108.5s-13.166 54 -26.499 75s-33.5 37 -60.5 48s-62.5 16.5 -106.5 16.5c-126.667 0 -190 -69.667 -190 -209v-148zM182.999 355v23.001c0 36 3.66699 61.833 11 77.5s24.333 23.5 51 23.5c26 0 43.667 -5.33301 53 -16
s14.333 -30.334 15 -59.001v-49h-130z" />
    <glyph glyph-name="f" unicode="f" horiz-adv-x="278" 
d="M71 469v-469h130v469h56v95h-56v66c0 14.667 9 22 27 22c6 0 15.667 -2 29 -6v104h-49c-49.333 0 -84.5 -9.33301 -105.5 -28s-31.5 -52.667 -31.5 -102v-56h-50v-95h50z" />
    <glyph glyph-name="g" unicode="g" 
d="M303 354l0.00195312 -169.001c0 -66.667 -21 -100 -63 -100c-18.667 0 -32.334 8.66699 -41.001 26s-14 41 -16 71v188c0.666992 6.66699 1 13.667 1 21c2 30.667 6.16699 53 12.5 67s21.5 21 45.5 21c12.667 0 23.167 -3.16699 31.5 -9.5s14.666 -14.666 18.999 -24.999
s7.33301 -21.5 9 -33.5s2.5 -24.667 2.5 -38l-1 -10v-9zM59.002 -63.001c3.33301 -44.667 19.8301 -76.999 49.4971 -96.999s67.834 -30 114.501 -30c42.667 0 78 5.16699 106 15.5s49.5 24.833 64.5 43.5s25.333 40.167 31 64.5s8.5 52.166 8.5 83.499v547h-130v-58h-2
c-17.333 48.667 -55 73 -113 73c-44.667 -1.33301 -78 -16.666 -100 -45.999s-33.667 -81 -35 -155v-204c0.666992 -25.333 3.16699 -48.833 7.5 -70.5s11.333 -41.5 21 -59.5s23.334 -32.333 41.001 -43s39.5 -16 65.5 -16c29.333 1.33301 53.333 7.5 72 18.5
s34.334 29.5 47.001 55.5l2 -2v-65c0 -26.667 -4.66699 -48 -14 -64s-26.333 -24 -51 -24c-18 0 -31.333 2.66699 -40 8c-10 5.33301 -15 13.666 -15 24.999h-130z" />
    <glyph glyph-name="h" unicode="h" 
d="M191 0v375.001c0 33.333 5 59 15 77s26.333 27 49 27c22.667 -0.666992 37.5 -8.5 44.5 -23.5s10.5 -38.167 10.5 -69.5v-386h130v435c0 49.333 -12 85.666 -36 108.999s-55.333 35 -94 35c-20 0 -40.5 -5 -61.5 -15s-39.5 -29.333 -55.5 -58h-2v244h-130v-750h130z" />
    <glyph glyph-name="i" unicode="i" horiz-adv-x="278" 
d="M204 0v564h-130v-564h130zM204 632v118h-130v-118h130z" />
    <glyph glyph-name="j" unicode="j" horiz-adv-x="278" 
d="M31 -190c15.333 -1.33301 30.334 -2 45.001 -2c38 0 64.667 3.66699 80 11c21.333 10 35.666 26 42.999 48s11 48.667 11 80c0 6.66699 -0.333008 15.667 -1 27v23v567h-130v-624c0 -12 -3.5 -20 -10.5 -24s-19.5 -6 -37.5 -6v-100zM209.001 632v118h-130v-118h130z" />
    <glyph glyph-name="k" unicode="k" horiz-adv-x="444" 
d="M178 0v172l35 58l81 -230h145l-138 337l142 227h-142l-123 -224h-2v3c1.33301 29.333 2 52 2 68v339h-130v-750h130z" />
    <glyph glyph-name="l" unicode="l" horiz-adv-x="278" 
d="M204 0v750h-130v-750h130z" />
    <glyph glyph-name="m" unicode="m" horiz-adv-x="778" 
d="M196 564l-130.001 0.00195312v-564h130v371c0 37.333 3.83301 64.5 11.5 81.5s25.167 25.833 52.5 26.5c27.333 0 44.833 -7.66699 52.5 -23s11.5 -38 11.5 -68v-388h130v371c0 36 4.5 62.667 13.5 80s26.5 26.666 52.5 27.999c26 0 42.833 -8.5 50.5 -25.5
s11.5 -41.167 11.5 -72.5v-381h130v459c0 33.333 -11.667 61.666 -35 84.999s-57.666 35 -102.999 35c-62 0 -105.333 -24.333 -130 -73h-2c-3.33301 24 -17 42.167 -41 54.5s-50.333 18.5 -79 18.5c-27.333 -1.33301 -51.5 -6.83301 -72.5 -16.5s-38.167 -28.5 -51.5 -56.5
h-2v58z" />
    <glyph glyph-name="n" unicode="n" 
d="M191 564l-130 0.000976562v-564h130v365c0 33.333 5 59 15 77s26.333 27 49 27c22.667 -0.666992 37.5 -8.5 44.5 -23.5s10.5 -38.167 10.5 -69.5v-376h130v435c0 49.333 -12 85.666 -36 108.999s-55.333 35 -94 35c-9.33301 0 -19 -0.833008 -29 -2.5
s-20.5 -5 -31.5 -10s-21.5 -12.5 -31.5 -22.5s-18.333 -22.667 -25 -38h-2v58z" />
    <glyph glyph-name="o" unicode="o" 
d="M183 372c0 18 0.5 32.5 1.5 43.5s3.66699 21.333 8 31s11.166 17.5 20.499 23.5s22.333 9 39 9c15.333 0 27.5 -2.83301 36.5 -8.5s15.5 -13.5 19.5 -23.5s6.5 -20.5 7.5 -31.5s1.5 -25.5 1.5 -43.5v-188c0 -38 -3.83301 -64 -11.5 -78s-25.5 -21 -53.5 -21
c-29.333 0 -48.166 7 -56.499 21s-12.5 40 -12.5 78v188zM252 -15c41.333 0 74.832 5.16602 100.499 15.499s45.334 26.5 59.001 48.5s23 49.833 28 83.5s7.5 76.834 7.5 129.501c0 59.333 -1.5 106.5 -4.5 141.5s-10.5 65.833 -22.5 92.5s-31.333 47.167 -58 61.5
s-63.334 21.5 -110.001 21.5c-47.333 0 -84.666 -7.16699 -111.999 -21.5s-47 -34.833 -59 -61.5s-19.5 -57 -22.5 -91s-4.83301 -81.667 -5.5 -143c0 -52 2.66699 -95 8 -129s15 -62 29 -84s34 -38.167 60 -48.5s60 -15.5 102 -15.5z" />
    <glyph glyph-name="p" unicode="p" 
d="M188 354v9.00098v10c0 13.333 0.666992 26 2 38s4.33301 23.167 9 33.5s11 18.666 19 24.999s18.333 9.5 31 9.5c24 0 39.333 -7 46 -21s10.667 -36.333 12 -67c0 -7.33301 0.333008 -14.333 1 -21v-188c-1.33301 -30 -6.5 -53.667 -15.5 -71s-22.833 -26 -41.5 -26
c-42 0 -63 33.333 -63 100v169zM188 564.001l-130.001 -0.00195312v-753h124v247h2c15.333 -26.667 32 -45.167 50 -55.5s41 -16.166 69 -17.499c26 0 47.833 5.33301 65.5 16s31.334 24.834 41.001 42.501s16.667 37.167 21 58.5s6.83301 45 7.5 71v204
c-1.33301 74 -13 125.833 -35 155.5s-55.333 45.167 -100 46.5c-28 0 -51 -5.66699 -69 -17s-32.667 -30.333 -44 -57h-2v59z" />
    <glyph glyph-name="q" unicode="q" 
d="M300 185c0 -66.667 -20.998 -100.001 -62.998 -100.001c-18.667 0 -32.334 8.66699 -41.001 26s-14 41 -16 71v188c0.666992 6.66699 1 13.667 1 21c2 30.667 6.16699 53 12.5 67s21.5 21 45.5 21c12.667 0 23.167 -3.16699 31.5 -9.5s14.666 -14.666 18.999 -24.999
s7.33301 -21.5 9 -33.5s2.5 -24.667 2.5 -38l-1 -10v-9v-169zM430.002 563.999h-130v-57h-2c-11.333 26 -25.833 44.5 -43.5 55.5s-40.834 16.5 -69.501 16.5c-44.667 -1.33301 -78 -16.5 -100 -45.5s-33.667 -80.5 -35 -154.5v-204c0.666992 -24.667 3.16699 -48 7.5 -70
s11.333 -42.167 21 -60.5s23.334 -32.833 41.001 -43.5s39.5 -16 65.5 -16c28 1.33301 50.833 7.5 68.5 18.5s32.5 29.833 44.5 56.5h2v-248h130v752z" />
    <glyph glyph-name="r" unicode="r" horiz-adv-x="333" 
d="M185 564h-124.998v-564h130v326c0.666992 34 10 58.333 28 73s42.667 22 74 22h13c5.33301 -0.666992 10 -1 14 -1v154h-5c-12.667 -0.666992 -24.834 -2.66699 -36.501 -6s-24.834 -11.333 -39.501 -24c-10 -8 -19 -18.333 -27 -31s-16 -29 -24 -49h-2v100z" />
    <glyph glyph-name="s" unicode="s" horiz-adv-x="444" 
d="M29 186c0 -3.33301 -0.332031 -8.00098 -0.999023 -14.001v-13c0 -34.667 6.16699 -63.667 18.5 -87s27.833 -41.166 46.5 -53.499s38.334 -21 59.001 -26s40.667 -7.5 60 -7.5c38 0 69.833 4.33301 95.5 13s45.667 20.5 60 35.5s24.5 32 30.5 51s9 39.833 9 62.5
c0 12 -0.666992 24.667 -2 38c-0.666992 9.33301 -4.16699 19.5 -10.5 30.5s-14 21.667 -23 32s-18.333 19.833 -28 28.5s-18.834 15.334 -27.501 20.001l-106 72l-3 2c-15.333 10.667 -26.833 20.334 -34.5 29.001s-11.5 20 -11.5 34c0 15.333 5 26.833 15 34.5
s23.333 11.5 40 11.5c21.333 0 36.666 -6.33301 45.999 -19s14 -35.334 14 -68.001h130c0 124.667 -60.333 187 -181 187c-62 0 -109.833 -11.833 -143.5 -35.5s-50.5 -57.5 -50.5 -101.5c0 -38.667 9.16699 -72 27.5 -100s44.833 -54 79.5 -78l71 -49
c4.66699 -3.33301 8.66699 -6 12 -8c16 -10 28.5 -19.333 37.5 -28s13.833 -19 14.5 -31c1.33301 -4.66699 2 -9.33398 2 -14.001c0 -14 -5.33301 -25.667 -16 -35s-24 -14 -40 -14c-20 0 -35.333 4.16699 -46 12.5s-16 27.833 -16 58.5c0 9.33301 0.666992 19.333 2 30
h-130z" />
    <glyph glyph-name="t" unicode="t" horiz-adv-x="278" 
d="M252 100c-1.33301 0 -4 -0.333008 -8 -1h-11c-9.33301 0 -17.333 1.5 -24 4.5s-10.667 8.16699 -12 15.5v350h55v95h-55v155h-131v-155h-52v-95h53v-382c0 -35.333 11 -59.833 33 -73.5s50.667 -20.5 86 -20.5c17.333 0 39.333 1.66699 66 5v102z" />
    <glyph glyph-name="u" unicode="u" 
d="M307 0l123.998 0.00195312v564h-130v-366c0 -16.667 -0.5 -30.834 -1.5 -42.501s-3.33301 -23 -7 -34s-9.66699 -19.833 -18 -26.5s-19.5 -10 -33.5 -10c-15.333 0 -28.666 6 -39.999 18c-5.33301 8.66699 -8.83301 18.667 -10.5 30s-2.5 26.333 -2.5 45v386h-130v-432
c0 -50.667 8.83301 -87.834 26.5 -111.501s50.834 -35.5 99.501 -35.5c31.333 0.666992 56.833 9 76.5 25s34.5 40.667 44.5 74h2v-84z" />
    <glyph glyph-name="v" unicode="v" horiz-adv-x="444" 
d="M142 0h162l130 564h-135l-56 -316c-4 -18.667 -7.33301 -41.834 -10 -69.501s-5 -55.834 -7 -84.501l-1 -13h-2l-1 13c-2 28.667 -4.33301 56.834 -7 84.501s-6 50.834 -10 69.501l-55 316h-140z" />
    <glyph glyph-name="w" unicode="w" horiz-adv-x="667" 
d="M381 564l-106.998 -0.000976562l-54 -348c-6.66699 -37.333 -11 -77.666 -13 -120.999h-2c0 6 -0.333008 14.833 -1 26.5s-1.83398 25.167 -3.50098 40.5s-3 28 -4 38s-1.83301 16.667 -2.5 20l-46 344h-137l116 -564h145l40 236c6.66699 40.667 11 85.334 13 134.001h4
c5.33301 -62.667 11 -110 17 -142l43 -228h142l114 564h-131l-43 -342c-0.666992 -4.66699 -1.5 -11.667 -2.5 -21l-4 -37c-1.66699 -15.333 -2.83398 -28.833 -3.50098 -40.5s-1 -20.5 -1 -26.5h-3c-2 43.333 -6.33301 83.666 -13 120.999z" />
    <glyph glyph-name="x" unicode="x" horiz-adv-x="444" 
d="M157 288l-149 -288h149l37 84c15.333 34 25 64 29 90h2c3.33301 -23.333 12 -51 26 -83l39 -91h146l-144 291l141 273h-144l-46 -100c-1.33301 -4 -2 -6.33301 -2 -7c-6.66699 -20 -11.334 -35.333 -14.001 -46h-2c-1.33301 8 -4.66602 20.667 -9.99902 38
c-2 6.66699 -3.33301 11 -4 13l-43 102h-153z" />
    <glyph glyph-name="y" unicode="y" horiz-adv-x="444" 
d="M5 564l136 -555.999c3.33301 -12.667 6.16602 -25.5 8.49902 -38.5s3.5 -24.167 3.5 -33.5c0 -10 -4 -17 -12 -21s-18.333 -6 -31 -6c-4.66699 0 -11.667 0.333008 -21 1c-8 0.666992 -12.333 1 -13 1v-101c22.667 -3.33301 43 -5 61 -5c26 0 47.5 3.5 64.5 10.5
s30.333 17.167 40 30.5s17.334 28 23.001 44s12.167 39.667 19.5 71l8 31l137 572h-132l-57 -303c-9.33301 -50.667 -16 -99.334 -20 -146.001h-2c-6.66699 66.667 -13 116.667 -19 150l-57 299h-137z" />
    <glyph glyph-name="z" unicode="z" horiz-adv-x="389" 
d="M367 471v93h-340v-100h194l-198 -362v-102h344v100h-206z" />
    <glyph glyph-name="braceleft" unicode="{" horiz-adv-x="274" 
d="M43 436c0 -28.667 -5.8291 -53 -17.4961 -73s-30.834 -32 -57.501 -36v-2c28 -7.33301 47.5 -19.5 58.5 -36.5s16.5 -40.5 16.5 -70.5v-162c0 -52.667 9.16699 -90.5 27.5 -113.5s53.166 -34.5 104.499 -34.5h65v2c-28.667 7.33301 -48.334 20.166 -59.001 38.499
s-16 41.833 -16 70.5v172c0 38 -5.5 68.833 -16.5 92.5s-32.833 37.834 -65.5 42.501v2c32 7.33301 53.667 20.666 65 39.999s17 48 17 86v184c0 31.333 5.16699 55.833 15.5 73.5s30.166 29.834 59.499 36.501v2h-74c-44 0 -75.5 -10.5 -94.5 -31.5
s-28.5 -53.833 -28.5 -98.5v-184z" />
    <glyph glyph-name="bar" unicode="|" horiz-adv-x="250" 
d="M75 750v-1000h100v1000h-100z" />
    <glyph glyph-name="braceright" unicode="}" horiz-adv-x="274" 
d="M231 618c0 47.333 -9.83301 80.998 -29.5 100.998s-52.834 30.333 -99.501 31h-68v-3c26.667 -5.33301 45.834 -17.166 57.501 -35.499s17.5 -43.166 17.5 -74.499v-185c0 -37.333 5.66699 -65.833 17 -85.5s33 -33.167 65 -40.5v-2
c-34 -9.33301 -56.167 -24.5 -66.5 -45.5s-15.5 -50.833 -15.5 -89.5v-171c0 -30.667 -5.33301 -55 -16 -73s-30.334 -30.333 -59.001 -37v-2h68c50.667 0 84.834 11.333 102.501 34s26.5 60.667 26.5 114v162c0 33.333 4.83301 58.833 14.5 76.5s29.834 28.167 60.501 31.5
v2c-26.667 4 -45.834 15.833 -57.501 35.5s-17.5 44.167 -17.5 73.5v183z" />
    <glyph glyph-name="asciitilde" unicode="~" 
d="M418 359c-1.33301 -2 -4.33203 -7.33203 -8.99902 -15.999c-10 -18.667 -19.5 -33 -28.5 -43s-20.5 -15 -34.5 -15c-8 0 -17.667 2.33301 -29 7s-26.333 11.667 -45 21c-26 12.667 -47.333 22.167 -64 28.5s-33 9.5 -49 9.5c-29.333 0 -54.333 -11.5 -75 -34.5
s-40 -52.833 -58 -89.5l57 -74c3.33301 6 5.66602 10.667 6.99902 14c11.333 22 21.833 38.833 31.5 50.5s22.5 17.5 38.5 17.5c6 0 14 -2 24 -6s24 -10.333 42 -19c27.333 -13.333 50.333 -23.5 69 -30.5s35.667 -10.5 51 -10.5c27.333 0 49.833 9.16699 67.5 27.5
s36.5 45.166 56.5 80.499l5 9z" />
    <glyph glyph-name="exclamdown" unicode="&#xa1;" horiz-adv-x="333" 
d="M232 -170l-0.000976562 210.001c0 31.333 -0.666992 60.666 -2 87.999s-3.33301 55.666 -6 84.999c-1.33301 16 -2.33301 27.667 -3 35c-5.33301 63.333 -8.66602 109.333 -9.99902 138h-88c-1.33301 -23.333 -4.33301 -61.333 -9 -114l-6 -59
c-4.66699 -51.333 -7 -96.666 -7 -135.999l1 -18v-19v-210h130zM101.999 447.001h130v132h-130v-132z" />
    <glyph glyph-name="cent" unicode="&#xa2;" 
d="M194 346c0 45.333 3 77.333 9 96s19.333 28 40 28l9 -1l-56 -332h-2v209zM298 218l0.00195312 -51.998v-5c-1.33301 -16.667 -2.83301 -29.5 -4.5 -38.5s-4.83398 -16.5 -9.50098 -22.5c-8.66699 -4 -17.334 -6 -26.001 -6c-10 0 -18 2.66699 -24 8l61 343h3v-79h130v45
c0 34 -7.33301 64.167 -22 90.5s-37.334 46.166 -68.001 59.499l21 110h-70l-17 -96c-12.667 4 -26 6 -40 6c-20 0 -39.333 -4 -58 -12s-35.667 -20.167 -51 -36.5s-27.666 -37.5 -36.999 -63.5s-14 -56.667 -14 -92v-183c0 -51.333 6.83301 -92.333 20.5 -123
s34.167 -53 61.5 -67l-24 -126h69l20 108c14.667 -2.66699 29.334 -4 44.001 -4c44.667 0 81.667 13.833 111 41.5s46.333 65.5 51 113.5c1.33301 13.333 2.16602 26.166 2.49902 38.499s0.5 26.5 0.5 42.5h-130z" />
    <glyph glyph-name="sterling" unicode="&#xa3;" 
d="M123 337c10.667 -18.667 16.001 -41.999 16.001 -69.999c0 -39.333 -9.16699 -76 -27.5 -110s-43.833 -60 -76.5 -78l36 -94c21.333 11.333 40.333 19.5 57 24.5s33.334 7.5 50.001 7.5c15.333 0 32.666 -2.33301 51.999 -7c8 -1.33301 20 -4.33301 36 -9
c40.667 -10.667 72.334 -16 95.001 -16c21.333 0 43.5 3.16699 66.5 9.5s42.833 15.166 59.5 26.499l-28 109c-14 -10 -28.167 -17.833 -42.5 -23.5s-28.5 -8.5 -42.5 -8.5c-2 0 -4 0.333008 -6 1h-7c-4 0.666992 -12.333 2.33398 -25 5.00098
c-18.667 4 -35.5 7.16699 -50.5 9.5s-29.833 3.5 -44.5 3.5c-16.667 0 -31.834 -2.33301 -45.501 -7s-30.834 -12.667 -51.501 -24l-3 2c34.667 22.667 63.5 50.667 86.5 84s34.5 68.666 34.5 105.999c0 24 -3 43.667 -9 59h124v59h-146l-1 2
c-13.333 32 -24.166 60.667 -32.499 86s-12.5 48 -12.5 68c0 32 6.33301 57.667 19 77s34 29 64 29c18 0 32.5 -3.16699 43.5 -9.5s19 -15 24 -26s8 -22.333 9 -34s1.83301 -28.167 2.5 -49.5v-7h128c0 36.667 -1.16699 65.167 -3.5 85.5s-7.83301 38.833 -16.5 55.5
c-18 32.667 -42.333 56.667 -73 72s-65.334 23 -104.001 23c-65.333 0 -119 -18 -161 -54s-63 -86.667 -63 -152c0 -62 15.333 -117.333 46 -166h-63v-59h86z" />
    <glyph glyph-name="currency" unicode="&#xa4;" 
d="M9 137l76.001 -78.998l42 43c38.667 -25.333 81 -38 127 -38c40 0 81 12.667 123 38l43 -43l72 79l-41 44c12 18 21 38.167 27 60.5s9 45.166 9 68.499c0 45.333 -12 88 -36 128l41 42l-72 80l-43 -43c-40 25.333 -82.333 38 -127 38c-20 0 -40.833 -3.5 -62.5 -10.5
s-41.834 -16.167 -60.501 -27.5l-42 43l-76 -80l42 -42c-12 -20.667 -20.833 -41.334 -26.5 -62.001s-8.5 -43 -8.5 -67s2.83301 -45.667 8.5 -65s14.5 -40.333 26.5 -63zM252.001 437.002c32.667 0 60.334 -12.834 83.001 -38.501s34 -55.167 34 -88.5
s-11.333 -63.166 -34 -89.499s-50.334 -39.5 -83.001 -39.5c-16 0 -31.167 3.5 -45.5 10.5s-27 16.667 -38 29s-19.5 26.333 -25.5 42s-9 31.5 -9 47.5c0 33.333 11.5 62.833 34.5 88.5s50.833 38.5 83.5 38.5z" />
    <glyph glyph-name="yen" unicode="&#xa5;" 
d="M518 750h-152l-79 -197c-16 -40 -27.333 -78.333 -34 -115h-2c-6.66699 36.667 -18 75 -34 115l-79 197h-156l198 -431v-60h-112v-50h112v-61h-112v-50h112v-98h140v98h108v50h-108v61h108v50h-108v60z" />
    <glyph glyph-name="brokenbar" unicode="&#xa6;" horiz-adv-x="250" 
d="M75 -175h100v350h-100v-350zM175 675h-100v-350h100v350z" />
    <glyph glyph-name="section" unicode="&#xa7;" 
d="M305 320c13.333 -12 23.334 -22.8311 30.001 -32.498s10 -21.167 10 -34.5c0 -12.667 -3.5 -24.834 -10.5 -36.501s-16.167 -20.5 -27.5 -26.5l-123 100c-12.667 9.33301 -22.334 22.666 -29.001 39.999c-2.66699 7.33301 -4 15 -4 23c0 13.333 4.16699 25.5 12.5 36.5
s17.5 18.833 27.5 23.5zM54.001 12.002v-14.0039c0.666992 -26 3 -45.333 7 -58c11.333 -38 31.833 -68 61.5 -90s69.167 -33 118.5 -33c25.333 0 49.666 4.16699 72.999 12.5s44.333 20.333 63 36s33.334 34.334 44.001 56.001s16 45.167 16 70.5
c0 24.667 -5.66699 50.5 -17 77.5s-24.666 45.833 -39.999 56.5c26 16 46.333 37 61 63s22 54 22 84c0 34 -7.16699 62.833 -21.5 86.5s-35.833 46.5 -64.5 68.5l-137 108c-15.333 12 -26.833 23.667 -34.5 35s-11.5 25.333 -11.5 42c0 18.667 5.5 32.5 16.5 41.5
s24.833 13.5 41.5 13.5c22 0 39 -7 51 -21c8.66699 -12 13 -26.667 13 -44c0 -1.33301 -0.333008 -3 -1 -5v-6h123v7c0.666992 3.33301 1 5.66602 1 6.99902c0 50.667 -16.167 90.334 -48.5 119.001s-75.166 43 -128.499 43c-31.333 0 -59 -4.5 -83 -13.5
s-44 -21.333 -60 -37s-27.833 -33.167 -35.5 -52.5s-11.5 -39 -11.5 -59c0 -31.333 3.66699 -56.5 11 -75.5s20.666 -35.5 39.999 -49.5c-28 -15.333 -49.333 -35.833 -64 -61.5s-22 -53.5 -22 -83.5c0 -41.333 7.16699 -73.166 21.5 -95.499s39.5 -47.833 75.5 -76.5
l119 -93c17.333 -13.333 31.666 -27.166 42.999 -41.499s17 -29.833 17 -46.5c0 -5.33301 -0.666992 -10.333 -2 -15c-2.66699 -14 -9.5 -25.667 -20.5 -35s-23.833 -14 -38.5 -14c-28 0 -47.167 7.83301 -57.5 23.5s-15.5 38.834 -15.5 69.501h-125z" />
    <glyph glyph-name="dieresis" unicode="&#xa8;" horiz-adv-x="333" 
d="M132 644v115h-127v-115h127zM328 644v115h-128v-115h128z" />
    <glyph glyph-name="copyright" unicode="&#xa9;" horiz-adv-x="830" 
d="M416 768c-53.333 0 -104 -10 -152 -30s-90.167 -48 -126.5 -84s-64.666 -77.833 -84.999 -125.5s-30.5 -98.167 -30.5 -151.5c0 -54 10.167 -105 30.5 -153s48.666 -90.167 84.999 -126.5s78.5 -64.666 126.5 -84.999s98.667 -30.5 152 -30.5s103.833 10.167 151.5 30.5
s89.667 48.666 126 84.999s64.5 78.5 84.5 126.5s30 99 30 153c0 53.333 -10 103.833 -30 151.5s-48.167 89.5 -84.5 125.5s-78.333 64 -126 84s-98.167 30 -151.5 30zM416 57c-43.333 0 -84.5 8.16699 -123.5 24.5s-73.333 39.333 -103 69s-52.667 64 -69 103
s-24.5 80.167 -24.5 123.5s8.33301 84.333 25 123s39.667 72.5 69 101.5s63.5 51.667 102.5 68s80.167 24.5 123.5 24.5c42.667 0 83.334 -8.16699 122.001 -24.5s72.834 -39.166 102.501 -68.499s52.667 -63.333 69 -102s24.5 -79.334 24.5 -122.001
c0 -43.333 -8.16699 -84.5 -24.5 -123.5s-39.333 -73.333 -69 -103s-63.834 -52.667 -102.501 -69s-79.334 -24.5 -122.001 -24.5zM527 306c-1.33301 -23.333 -11.3311 -42.6631 -29.998 -57.9961s-40.334 -23 -65.001 -23c-20 0 -38 4.5 -54 13.5s-29.667 21.167 -41 36.5
s-19.833 32.166 -25.5 50.499s-8.5 37.166 -8.5 56.499c0 42 11 77.833 33 107.5s53 44.5 93 44.5c25.333 0 46.833 -6.83301 64.5 -20.5s28.834 -32.5 33.501 -56.5h89c-8.66699 46.667 -29.834 83.167 -63.501 109.5s-74.5 39.5 -122.5 39.5
c-65.333 0 -117.5 -21.167 -156.5 -63.5s-58.5 -96.5 -58.5 -162.5c0 -31.333 5.16699 -60.833 15.5 -88.5s25.166 -51.834 44.499 -72.501s42.333 -36.834 69 -48.501s56 -17.5 88 -17.5c47.333 0 88.5 14 123.5 42s55.167 65 60.5 111h-89z" />
    <glyph glyph-name="ordfeminine" unicode="&#xaa;" horiz-adv-x="300" 
d="M189 562l0.00292969 -17c-0.666992 -23.333 -3.33398 -41.5 -8.00098 -54.5s-16.334 -19.5 -35.001 -19.5c-14.667 0 -24.834 3.83301 -30.501 11.5s-8.5 18.5 -8.5 32.5c0 16.667 3 28.667 9 36s19.667 17 41 29c14 8 24.667 14.333 32 19v-37zM105.003 659
c0 17.333 3.00195 30.5 9.00195 39.5s17.667 13.5 35 13.5c22.667 0 36 -7 40 -21c1.33301 -4.66699 2 -9 2 -13c0 -18 -14.667 -32.667 -44 -44c-2 -0.666992 -4.66699 -1.66699 -8 -3c-21.333 -8 -38 -14.833 -50 -20.5s-23.167 -12.667 -33.5 -21
s-18.5 -18.666 -24.5 -30.999s-9 -27.5 -9 -45.5c0 -35.333 7.83301 -61 23.5 -77s40.5 -24 74.5 -24c15.333 0 29.666 4 42.999 12s23.666 18.333 30.999 31h2v-5c-0.666992 -3.33301 -1 -5.33301 -1 -6c0 -8.66699 2 -16.334 6 -23.001h80c-4.66699 14 -7 29.667 -7 47
v200c0 14.667 -1.33301 27.667 -4 39s-8 21.5 -16 30.5s-20.333 16.333 -37 22s-38 8.5 -64 8.5c-48.667 0 -82.167 -9.16699 -100.5 -27.5s-27.5 -45.5 -27.5 -81.5h80z" />
    <glyph glyph-name="guillemotleft" unicode="&#xab;" 
d="M231 62v113l-94 81l94 79v112l-157 -141v-102zM419 62v113l-96 81l96 79v112l-159 -141v-102z" />
    <glyph glyph-name="logicalnot" unicode="&#xac;" 
d="M365 105h110v296h-449v-110h339v-186z" />
    <glyph glyph-name="minus" unicode="&#xad;" 
d="M26 194h449v110h-449v-110z" />
    <glyph glyph-name="minus" unicode="&#x2212;" 
d="M26 194h449v110h-449v-110z" />
    <glyph glyph-name="registered" unicode="&#xae;" horiz-adv-x="830" 
d="M416 -18c53.333 0 103.833 10.167 151.5 30.5s89.5 48.666 125.5 84.999s64.167 78.5 84.5 126.5s30.5 98.667 30.5 152s-10.167 103.833 -30.5 151.5s-48.5 89.5 -84.5 125.5s-77.833 64.167 -125.5 84.5s-98.167 30.5 -151.5 30.5s-104 -10.167 -152 -30.5
s-90.167 -48.5 -126.5 -84.5s-64.666 -77.833 -84.999 -125.5s-30.5 -98.167 -30.5 -151.5s10.167 -104 30.5 -152s48.666 -90.167 84.999 -126.5s78.5 -64.666 126.5 -84.999s98.667 -30.5 152 -30.5zM416 56c-43.333 0 -84.5 8.16699 -123.5 24.5
s-73.333 39.166 -103 68.499s-52.667 63.5 -69 102.5s-24.5 80.5 -24.5 124.5c0 43.333 8.16699 84.333 24.5 123s39.333 72.667 69 102s64 52.166 103 68.499s80.167 24.5 123.5 24.5s84.333 -8.16699 123 -24.5s72.667 -39.166 102 -68.499s52.166 -63.333 68.499 -102
s24.5 -79.667 24.5 -123c0 -44 -8.16699 -85.5 -24.5 -124.5s-39.166 -73.167 -68.499 -102.5s-63.333 -52.166 -102 -68.499s-79.667 -24.5 -123 -24.5zM508 341c38.667 2.66699 67.667 12.999 87 30.999s29 45.667 29 83c0 24 -3.83301 45.5 -11.5 64.5
s-20.5 34.167 -38.5 45.5c-14 8.66699 -30.5 14.334 -49.5 17.001s-40.833 4 -65.5 4h-205v-425h83v180h83l94 -180h97zM337 403.999v119h103c14.667 0 27.167 -0.333008 37.5 -1s20.333 -2.66699 30 -6s17.667 -8.83301 24 -16.5s9.5 -18.167 9.5 -31.5
c0 -24.667 -6.66699 -41.5 -20 -50.5s-33.333 -13.5 -60 -13.5h-124z" />
    <glyph glyph-name="macron" unicode="&#xaf;" horiz-adv-x="333" 
d="M340 666v74h-346v-74h346z" />
    <glyph glyph-name="degree" unicode="&#xb0;" horiz-adv-x="400" 
d="M350 600c0 20 -3.83301 39.166 -11.5 57.499s-18.5 34.5 -32.5 48.5s-30.167 24.833 -48.5 32.5s-37.5 11.5 -57.5 11.5s-39.167 -3.83301 -57.5 -11.5s-34.5 -18.5 -48.5 -32.5s-24.833 -30 -32.5 -48s-11.5 -37.333 -11.5 -58c0 -20 3.83301 -39.167 11.5 -57.5
s18.5 -34.5 32.5 -48.5s30.167 -24.833 48.5 -32.5s37.5 -11.5 57.5 -11.5s39.167 3.83301 57.5 11.5s34.5 18.334 48.5 32.001s24.833 29.667 32.5 48s11.5 37.833 11.5 58.5zM129 599.999c0 20 7 36.833 21 50.5s30.667 20.5 50 20.5c20 0 36.833 -7 50.5 -21
s20.5 -30.667 20.5 -50c0 -20 -6.83301 -36.833 -20.5 -50.5s-30.167 -20.5 -49.5 -20.5c-20 0 -37 6.83301 -51 20.5s-21 30.5 -21 50.5z" />
    <glyph glyph-name="plusminus" unicode="&#xb1;" 
d="M195 379h-169v-110h169v-134h110v134h170v110h-170v134h-110v-134zM26 -15h449v110h-449v-110z" />
    <glyph glyph-name="twosuperior" unicode="&#xb2;" horiz-adv-x="300" 
d="M229 512c38.667 36.667 58 77.665 58 122.998c0 35.333 -12 63.5 -36 84.5s-55.667 31.833 -95 32.5c-32 0 -57.5 -4.83301 -76.5 -14.5s-33 -21.667 -42 -36s-14.5 -28.5 -16.5 -42.5s-3 -29.333 -3 -46v-13h85c0 18.667 0.5 32.334 1.5 41.001
s2.83301 16.334 5.5 23.001c2.66699 7.33301 7.83398 12.833 15.501 16.5s16.5 5.5 26.5 5.5c14 0 24.833 -4.16699 32.5 -12.5s11.5 -22.166 11.5 -41.499c0 -18.667 -3 -33.167 -9 -43.5s-17.333 -23.833 -34 -40.5l-2 -2l-44 -43
c-26.667 -26 -46.834 -49.5 -60.501 -70.5s-22.167 -39.833 -25.5 -56.5c-2 -10.667 -3.66699 -22.5 -5 -35.5s-2.33301 -26.5 -3 -40.5h267v66h-170c0.666992 13.333 5.5 26.666 14.5 39.999s19.833 26 32.5 38z" />
    <glyph glyph-name="threesuperior" unicode="&#xb3;" horiz-adv-x="300" 
d="M105 507c19.333 0 36.002 -1 50.002 -3s24.667 -7 32 -15c4.66699 -4.66699 7.5 -11.167 8.5 -19.5s1.5 -17.833 1.5 -28.5c0 -29.333 -2.83301 -50.833 -8.5 -64.5s-19.167 -20.5 -40.5 -20.5c-22 0 -35.833 6.66699 -41.5 20s-8.83398 32 -9.50098 56v16h-85v-26
c0 -16 1.5 -31.333 4.5 -46s9.16699 -28.5 18.5 -41.5s23.166 -23.667 41.499 -32s41.833 -12.5 70.5 -12.5c48.667 0 84.334 12.167 107.001 36.5s34 59.5 34 105.5c0 34 -6.66699 60 -20 78s-31 28 -53 30v2c21.333 3.33301 37.166 14 47.499 32s15.5 38.333 15.5 61
c0 36.667 -10.833 65.167 -32.5 85.5s-54.834 30.5 -99.501 30.5c-46 0 -79.667 -11.667 -101 -35c-9.33301 -10 -16.166 -22.833 -20.499 -38.5s-6.5 -35.5 -6.5 -59.5h85v31c0.666992 13.333 5.16699 22.666 13.5 27.999s18.5 8 30.5 8c28.667 0 43 -17 43 -51
c0 -13.333 -1.83301 -24.666 -5.5 -33.999s-11.167 -16.333 -22.5 -21c-8.66699 -3.33301 -22.667 -5.33301 -42 -6h-15v-66z" />
    <glyph glyph-name="acute" unicode="&#xb4;" horiz-adv-x="333" 
d="M83 629h101l148 146h-155z" />
    <glyph glyph-name="mu" unicode="&#xb5;" 
d="M431 0l-0.000976562 564.002h-130v-366c0 -16.667 -0.5 -30.834 -1.5 -42.501s-3.33301 -23 -7 -34s-9.66699 -19.833 -18 -26.5s-19.5 -10 -33.5 -10c-15.333 0 -28.666 6 -39.999 18c-5.33301 8.66699 -8.83301 18.667 -10.5 30s-2.5 26.333 -2.5 45v386h-130v-753h130
v194c11.333 -3.33301 22 -5 32 -5c20 0 37 7.16699 51 21.5s25.333 35.166 34 62.499h2v-84h124z" />
    <glyph glyph-name="paragraph" unicode="&#xb6;" horiz-adv-x="550" 
d="M366 -116h118v748h42v118h-303c-66 0 -115.833 -13.5 -149.5 -40.5s-50.5 -72.833 -50.5 -137.5c0 -52 13.5 -93.5 40.5 -124.5s65.833 -46.5 116.5 -46.5v-517h118v748h68v-748z" />
    <glyph glyph-name="periodcentered" unicode="&#xb7;" horiz-adv-x="333" 
d="M101 315v-132h132v132h-132z" />
    <glyph glyph-name="periodcentered" unicode="&#x2219;" horiz-adv-x="333" 
d="M101 315v-132h132v132h-132z" />
    <glyph glyph-name="cedilla" unicode="&#xb8;" horiz-adv-x="333" 
d="M39 -203l24.001 -8.00293c17.333 -6 31 -10.333 41 -13c15.333 -2.66699 30 -4 44 -4c23.333 0 44.833 3.83301 64.5 11.5s36.167 19.834 49.5 36.501c5.33301 9.33301 8.83301 17 10.5 23s2.5 13.667 2.5 23c0 10.667 -1.83301 20.834 -5.5 30.501
s-9.16699 17.167 -16.5 22.5c-8.66699 8.66699 -18.667 14.834 -30 18.501s-24 5.5 -38 5.5c-12.667 0 -23 -2 -31 -6l-2 2l42 61h-53l-59 -90l21 -20c16 5.33301 29.667 8 41 8c8.66699 0 16.667 -1.66699 24 -5c10 -3.33301 16.667 -11.333 20 -24
c0 -13.333 -4.5 -24.333 -13.5 -33s-19.167 -13 -30.5 -13c-15.333 0 -28.833 1.16699 -40.5 3.5s-26.834 6.5 -45.501 12.5z" />
    <glyph glyph-name="onesuperior" unicode="&#xb9;" horiz-adv-x="300" 
d="M160 300h91.001v450h-67c-8.66699 -28.667 -24.334 -48.667 -47.001 -60s-51.667 -17.333 -87 -18v-60h110v-312z" />
    <glyph glyph-name="ordmasculine" unicode="&#xba;" horiz-adv-x="300" 
d="M106 648c0 23.333 2.5 39.168 7.5 47.501s16.833 12.5 35.5 12.5s30.667 -4.33301 36 -13s8 -24.334 8 -47.001v-113c0 -20.667 -2.5 -36.334 -7.5 -47.001s-17.167 -16 -36.5 -16s-31.333 5.33301 -36 16s-7 26.334 -7 47.001v113zM150 768.002
c-30.667 0 -54.8301 -4.33398 -72.4971 -13.001s-30.334 -21 -38.001 -37s-12.5 -34.333 -14.5 -55s-3 -49 -3 -85c0 -62 8.5 -105.167 25.5 -129.5s51.5 -36.5 103.5 -36.5s86.167 12.333 102.5 37s24.5 67.667 24.5 129c0 36 -1 64.5 -3 85.5s-6.83301 39.333 -14.5 55
s-20.334 27.834 -38.001 36.501s-41.834 13 -72.501 13z" />
    <glyph glyph-name="guillemotright" unicode="&#xbb;" 
d="M81 62l159 142v102l-159 141v-112l96 -75l-96 -85v-113zM269 62l157 142v102l-157 141v-112l95 -75l-95 -85v-113z" />
    <glyph glyph-name="onequarter" unicode="&#xbc;" horiz-adv-x="750" 
d="M505 157l89 183h2v-183h-91zM586 443l-148 -286v-66h158v-91h91v91h42v66h-42v286h-101zM206 0l425 738h-75l-425 -738h75zM130 300h91.001v450h-67c-8.66699 -28.667 -24.334 -48.667 -47.001 -60s-51.667 -17.333 -87 -18v-60h110v-312z" />
    <glyph glyph-name="onehalf" unicode="&#xbd;" horiz-adv-x="750" 
d="M183 0l425 738h-75l-425 -738h75zM122 300h91.001v450h-67c-8.66699 -28.667 -24.334 -48.667 -47.001 -60s-51.667 -17.333 -87 -18v-60h110v-312zM681.001 212c38.667 36.667 58 77.665 58 122.998c0 35.333 -12 63.5 -36 84.5s-55.667 31.833 -95 32.5
c-32 0 -57.5 -4.83301 -76.5 -14.5s-33 -21.667 -42 -36s-14.5 -28.5 -16.5 -42.5s-3 -29.333 -3 -46v-13h85c0 18.667 0.5 32.334 1.5 41.001s2.83301 16.334 5.5 23.001c2.66699 7.33301 7.83398 12.833 15.501 16.5s16.5 5.5 26.5 5.5c14 0 24.833 -4.16699 32.5 -12.5
s11.5 -22.166 11.5 -41.499c0 -18.667 -3 -33.167 -9 -43.5s-17.333 -23.833 -34 -40.5l-2 -2l-44 -43c-26.667 -26 -46.834 -49.5 -60.501 -70.5s-22.167 -39.833 -25.5 -56.5c-2 -10.667 -3.66699 -22.5 -5 -35.5s-2.33301 -26.5 -3 -40.5h267v66h-170
c0.666992 13.333 5.5 26.666 14.5 39.999s19.833 26 32.5 38z" />
    <glyph glyph-name="threequarters" unicode="&#xbe;" horiz-adv-x="750" 
d="M515 157l89 183h2v-183h-91zM596 443l-148 -286v-66h158v-91h91v91h42v66h-42v286h-101zM234 0l425 738h-75l-425 -738h75zM105 507c19.333 0 36.002 -1 50.002 -3s24.667 -7 32 -15c4.66699 -4.66699 7.5 -11.167 8.5 -19.5s1.5 -17.833 1.5 -28.5
c0 -29.333 -2.83301 -50.833 -8.5 -64.5s-19.167 -20.5 -40.5 -20.5c-22 0 -35.833 6.66699 -41.5 20s-8.83398 32 -9.50098 56v16h-85v-26c0 -16 1.5 -31.333 4.5 -46s9.16699 -28.5 18.5 -41.5s23.166 -23.667 41.499 -32s41.833 -12.5 70.5 -12.5
c48.667 0 84.334 12.167 107.001 36.5s34 59.5 34 105.5c0 34 -6.66699 60 -20 78s-31 28 -53 30v2c21.333 3.33301 37.166 14 47.499 32s15.5 38.333 15.5 61c0 36.667 -10.833 65.167 -32.5 85.5s-54.834 30.5 -99.501 30.5c-46 0 -79.667 -11.667 -101 -35
c-9.33301 -10 -16.166 -22.833 -20.499 -38.5s-6.5 -35.5 -6.5 -59.5h85v31c0.666992 13.333 5.16699 22.666 13.5 27.999s18.5 8 30.5 8c28.667 0 43 -17 43 -51c0 -13.333 -1.83301 -24.666 -5.5 -33.999s-11.167 -16.333 -22.5 -21
c-8.66699 -3.33301 -22.667 -5.33301 -42 -6h-15v-66z" />
    <glyph glyph-name="questiondown" unicode="&#xbf;" 
d="M324 25c-0.666992 -5.33301 -0.999023 -14 -0.999023 -26c-0.666992 -13.333 -1.66699 -24.833 -3 -34.5s-4.33301 -18.834 -9 -27.501s-11.334 -14.667 -20.001 -18s-20.667 -5 -36 -5c-20 0 -34.5 6.33301 -43.5 19s-13.5 33.334 -13.5 62.001
c0 24.667 2.66699 44.167 8 58.5s15.666 32.166 30.999 53.499c8 10.667 20 25.334 36 44.001c24 29.333 41.833 54.666 53.5 75.999s18.834 48.333 21.501 81c1.33301 12.667 2.16602 24.167 2.49902 34.5s0.5 21.833 0.5 34.5h-117c0 -27.333 -2.5 -51.833 -7.5 -73.5
s-14.5 -41.167 -28.5 -58.5l-34 -38l-35 -38c-25.333 -32 -43.166 -59.833 -53.499 -83.5s-15.5 -53.5 -15.5 -89.5c0 -57.333 17.333 -102.666 52 -135.999s81.667 -50 141 -50c62.667 0 111 16 145 48s51 80.667 51 146l-1 10v11h-124zM353.001 450v129h-128v-129h128z
" />
    <glyph glyph-name="Agrave" unicode="&#xc0;" horiz-adv-x="556" 
d="M159 0l37 190h164l37 -190h150l-170 750h-189l-179 -750h150zM260 513c4 18.667 7.99805 47 11.998 85l2 19c0.666992 12.667 2.33398 29.334 5.00098 50.001h2c2.66699 -20.667 4.33398 -37.334 5.00098 -50.001l2 -19c4 -38 8 -66.333 12 -85l38 -213h-120z
M112.998 961l148 -146h101l-94 146h-155z" />
    <glyph glyph-name="Aacute" unicode="&#xc1;" horiz-adv-x="556" 
d="M159 0l37 190h164l37 -190h150l-170 750h-189l-179 -750h150zM260 513c4 18.667 7.99805 47 11.998 85l2 19c0.666992 12.667 2.33398 29.334 5.00098 50.001h2c2.66699 -20.667 4.33398 -37.334 5.00098 -50.001l2 -19c4 -38 8 -66.333 12 -85l38 -213h-120z
M194.998 815h101l148 146h-155z" />
    <glyph glyph-name="Acircumflex" unicode="&#xc2;" horiz-adv-x="556" 
d="M159 0l37 190h164l37 -190h150l-170 750h-189l-179 -750h150zM260 513c4 18.667 7.99805 47 11.998 85l2 19c0.666992 12.667 2.33398 29.334 5.00098 50.001h2c2.66699 -20.667 4.33398 -37.334 5.00098 -50.001l2 -19c4 -38 8 -66.333 12 -85l38 -213h-120z
M204.998 956l-113 -146h112l64 82l63 -82h114l-115 146h-125z" />
    <glyph glyph-name="Atilde" unicode="&#xc3;" horiz-adv-x="556" 
d="M159 0l37 190h164l37 -190h150l-170 750h-189l-179 -750h150zM260 513c4 18.667 7.99805 47 11.998 85l2 19c0.666992 12.667 2.33398 29.334 5.00098 50.001h2c2.66699 -20.667 4.33398 -37.334 5.00098 -50.001l2 -19c4 -38 8 -66.333 12 -85l38 -213h-120z
M396.998 930c-7.33301 -28 -24.001 -42 -50.001 -42c-5.33301 0 -13 1.66699 -23 5s-21.333 7.66602 -34 12.999l-4 1l-12 5c-13.333 4.66699 -24.166 8 -32.499 10s-18.833 3 -31.5 3c-25.333 0 -50 -11 -74 -33s-37.333 -52 -40 -90h62l1 2
c2.66699 6.66699 6 13.334 10 20.001s9 11.667 15 15s13 5 21 5c7.33301 0 14.666 -1 21.999 -3s16.333 -5 27 -9l3 -1l4 -1c21.333 -6.66699 38.666 -11.834 51.999 -15.501s24 -5.5 32 -5.5c12 0 23.833 1.83301 35.5 5.5s22.834 9.83398 33.501 18.501
s20.334 21 29.001 37s15 36 19 60h-65z" />
    <glyph glyph-name="Adieresis" unicode="&#xc4;" horiz-adv-x="556" 
d="M159 0l37 190h164l37 -190h150l-170 750h-189l-179 -750h150zM260 513c4 18.667 7.99805 47 11.998 85l2 19c0.666992 12.667 2.33398 29.334 5.00098 50.001h2c2.66699 -20.667 4.33398 -37.334 5.00098 -50.001l2 -19c4 -38 8 -66.333 12 -85l38 -213h-120z
M243.998 830v115h-127v-115h127zM439.998 830v115h-128v-115h128z" />
    <glyph glyph-name="Aring" unicode="&#xc5;" horiz-adv-x="556" 
d="M159 0l37 190h164l37 -190h150l-170 750h-189l-179 -750h150zM260 513c4 18.667 7.99805 47 11.998 85l2 19c0.666992 12.667 2.33398 29.334 5.00098 50.001h2c2.66699 -20.667 4.33398 -37.334 5.00098 -50.001l2 -19c4 -38 8 -66.333 12 -85l38 -213h-120z
M278.998 778c29.333 0 54.333 10.333 75 31s31 45.667 31 75s-10.333 54.5 -31 75.5s-45.667 31.5 -75 31.5c-28.667 0 -53.667 -10.667 -75 -32s-32 -46.333 -32 -75s10.667 -53.5 32 -74.5s46.333 -31.5 75 -31.5zM278.998 942c15.333 0 28.833 -5.83105 40.5 -17.498
s17.5 -25.167 17.5 -40.5c0 -14.667 -5.83301 -27.834 -17.5 -39.501s-25.167 -17.5 -40.5 -17.5s-28.833 5.66699 -40.5 17s-17.5 24.666 -17.5 39.999c0 16 5.66699 29.667 17 41s25 17 41 17z" />
    <glyph glyph-name="AE" unicode="&#xc6;" horiz-adv-x="778" 
d="M365 0h385v110h-245v230h229v110h-229v190h245v110h-484l-288 -750h150l65 192h172v-192zM365 611v-309h-134l107 309h27z" />
    <glyph glyph-name="Ccedilla" unicode="&#xc7;" horiz-adv-x="556" 
d="M212 -90l21.001 -20c16 5.33301 29.667 8 41 8c8.66699 0 16.667 -1.66699 24 -5c10 -3.33301 16.667 -11.333 20 -24c0 -13.333 -4.5 -24.333 -13.5 -33s-19.167 -13 -30.5 -13c-15.333 0 -28.833 1.16699 -40.5 3.5s-26.834 6.5 -45.501 12.5l-19 -42l24 -8
c17.333 -6 31 -10.333 41 -13c15.333 -2.66699 30 -4 44 -4c23.333 0 44.833 3.83301 64.5 11.5s36.167 19.834 49.5 36.501c5.33301 9.33301 8.83301 17 10.5 23s2.5 13.667 2.5 23c0 10.667 -1.83301 20.834 -5.5 30.501s-9.16699 17.167 -16.5 22.5
c-8.66699 8.66699 -18.667 14.834 -30 18.501s-24 5.5 -38 5.5c-12.667 0 -23 -2 -31 -6l-2 2l31 44c35.333 1.33301 65.333 8.16602 90 20.499s44.5 29.333 59.5 51s26 46.334 33 74.001s11.5 59.5 13.5 95.5c0 2.66699 0.666992 10 2 22c0.666992 12 1 19 1 21h-141
c0 -4.66699 -0.333008 -12.334 -1 -23.001c0 -18.667 -0.666992 -35.834 -2 -51.501s-4.33301 -31 -9 -46s-11.667 -27.333 -21 -37s-22 -14.5 -38 -14.5c-22.667 0 -40.834 5.16699 -54.501 15.5s-23.834 23.666 -30.501 39.999s-11 33.166 -13 50.499s-3 36.333 -3 57v208
c0 28 1 52.5 3 73.5s6.33301 40.333 13 58s16.834 31.667 30.501 42s31.834 15.5 54.501 15.5c14 0 25.333 -3.33301 34 -10s15.167 -15.667 19.5 -27s7.5 -22.5 9.5 -33.5s3.66699 -25.5 5 -43.5c0.666992 -12 1.33398 -20 2.00098 -24h138c0 18.667 -1 37.667 -3 57
c-10 127.333 -78.333 192 -205 194c-54 0 -97.333 -8 -130 -24s-56.834 -38.5 -72.501 -67.5s-26.167 -62 -31.5 -99s-9 -84.5 -11 -142.5v-107c0 -55.333 2 -101.666 6 -138.999s12.667 -70.833 26 -100.5s34 -53.5 62 -71.5s65 -29 111 -33z" />
    <glyph glyph-name="Egrave" unicode="&#xc8;" 
d="M458 0v110h-254v231h234v110h-234v189h254v110h-394v-750h394zM85 961l148 -146h101l-94 146h-155z" />
    <glyph glyph-name="Eacute" unicode="&#xc9;" 
d="M458 0v110h-254v231h234v110h-234v189h254v110h-394v-750h394zM167 815h101l148 146h-155z" />
    <glyph glyph-name="Ecircumflex" unicode="&#xca;" 
d="M458 0v110h-254v231h234v110h-234v189h254v110h-394v-750h394zM187 956l-113 -146h112l64 82l63 -82h114l-115 146h-125z" />
    <glyph glyph-name="Edieresis" unicode="&#xcb;" 
d="M458 0v110h-254v231h234v110h-234v189h254v110h-394v-750h394zM216 830v115h-127v-115h127zM412 830v115h-128v-115h128z" />
    <glyph glyph-name="Igrave" unicode="&#xcc;" horiz-adv-x="278" 
d="M209 0v750h-140v-750h140zM-26 961l148 -146h101l-94 146h-155z" />
    <glyph glyph-name="Iacute" unicode="&#xcd;" horiz-adv-x="278" 
d="M209 0v750h-140v-750h140zM56 815h101l148 146h-155z" />
    <glyph glyph-name="Icircumflex" unicode="&#xce;" horiz-adv-x="278" 
d="M209 0v750h-140v-750h140zM76 956l-113 -146h112l64 82l63 -82h114l-115 146h-125z" />
    <glyph glyph-name="Idieresis" unicode="&#xcf;" horiz-adv-x="278" 
d="M209 0v750h-140v-750h140zM105 830v115h-127v-115h127zM301 830v115h-128v-115h128z" />
    <glyph glyph-name="Eth" unicode="&#xd0;" horiz-adv-x="611" 
d="M212 640h92c24.667 0 44 -6.5 58 -19.5s24.167 -31 30.5 -54s10.166 -48.5 11.499 -76.5s2 -66.333 2 -115s-0.666992 -87 -2 -115s-5.16602 -53.5 -11.499 -76.5s-16.5 -41 -30.5 -54s-33.333 -19.5 -58 -19.5h-92v231h117v110h-117v189zM72 0l258.999 0.000976562
c22 0 41.333 1.33301 58 4s32 8 46 16c27.333 16 49 37.667 65 65s27.5 58.166 34.5 92.499s11.333 68.5 13 102.5s2.5 76 2.5 126c0 66 -3 119.5 -9 160.5s-16.667 73.833 -32 98.5c-19.333 31.333 -44.666 54.333 -75.999 69c-12 6 -24 10.167 -36 12.5s-23 3.5 -33 3.5
h-292v-299h-58v-110h58v-341z" />
    <glyph glyph-name="Ntilde" unicode="&#xd1;" horiz-adv-x="611" 
d="M403 603c0 -56.667 2.33496 -126.999 7.00195 -210.999c3.33301 -61.333 8 -132.333 14 -213h-2c-16.667 60 -32.834 113.5 -48.501 160.5s-32.834 92.833 -51.501 137.5l-109 273h-145v-750h140v141c0 26.667 -0.5 57.5 -1.5 92.5s-2.83301 74.167 -5.5 117.5
c-2 33.333 -4.16699 66.166 -6.5 98.499l-8.5 115.5h2c17.333 -61.333 33.833 -115.5 49.5 -162.5s32.5 -92.167 50.5 -135.5l109 -267h146v750h-140v-147zM424.002 930.001c-7.33301 -28 -24.001 -42 -50.001 -42c-5.33301 0 -13 1.66699 -23 5s-21.333 7.66602 -34 12.999
l-4 1l-12 5c-13.333 4.66699 -24.166 8 -32.499 10s-18.833 3 -31.5 3c-25.333 0 -50 -11 -74 -33s-37.333 -52 -40 -90h62l1 2c2.66699 6.66699 6 13.334 10 20.001s9 11.667 15 15s13 5 21 5c7.33301 0 14.666 -1 21.999 -3s16.333 -5 27 -9l3 -1l4 -1
c21.333 -6.66699 38.666 -11.834 51.999 -15.501s24 -5.5 32 -5.5c12 0 23.833 1.83301 35.5 5.5s22.834 9.83398 33.501 18.501s20.334 21 29.001 37s15 36 19 60h-65z" />
    <glyph glyph-name="Ograve" unicode="&#xd2;" horiz-adv-x="611" 
d="M61 328c0 -59.333 2.33691 -108.5 7.00391 -147.5s15 -73.5 31 -103.5s40.667 -53.333 74 -70s77.666 -25 132.999 -25s99.666 8.33301 132.999 25s58 40 74 70s26.333 64.5 31 103.5s7 88.167 7 147.5v107c-2 58 -5.66699 105.5 -11 142.5s-15.833 70 -31.5 99
s-39.834 51.5 -72.501 67.5s-76 24 -130 24s-97.333 -8 -130 -24s-56.834 -38.5 -72.501 -67.5s-26.167 -62 -31.5 -99s-9 -84.5 -11 -142.5v-107zM205.004 466c0 28 0.999023 52.502 2.99902 73.502s6.33301 40.333 13 58s16.834 31.667 30.501 42s31.834 15.5 54.501 15.5
c23.333 0 42 -6.16699 56 -18.5s24.167 -28 30.5 -47s10.333 -38.5 12 -58.5s2.5 -43 2.5 -69v-192c0 -25.333 -0.833008 -47 -2.5 -65s-5.5 -35.5 -11.5 -52.5s-16.167 -30.833 -30.5 -41.5s-33.166 -16 -56.499 -16c-22.667 0 -40.834 5.16699 -54.501 15.5
s-23.834 23.666 -30.501 39.999s-11 33.166 -13 50.499s-3 36.333 -3 57v208zM140.003 961.002l148 -146h101l-94 146h-155z" />
    <glyph glyph-name="Oacute" unicode="&#xd3;" horiz-adv-x="611" 
d="M61 328c0 -59.333 2.33691 -108.5 7.00391 -147.5s15 -73.5 31 -103.5s40.667 -53.333 74 -70s77.666 -25 132.999 -25s99.666 8.33301 132.999 25s58 40 74 70s26.333 64.5 31 103.5s7 88.167 7 147.5v107c-2 58 -5.66699 105.5 -11 142.5s-15.833 70 -31.5 99
s-39.834 51.5 -72.501 67.5s-76 24 -130 24s-97.333 -8 -130 -24s-56.834 -38.5 -72.501 -67.5s-26.167 -62 -31.5 -99s-9 -84.5 -11 -142.5v-107zM205.004 466c0 28 0.999023 52.502 2.99902 73.502s6.33301 40.333 13 58s16.834 31.667 30.501 42s31.834 15.5 54.501 15.5
c23.333 0 42 -6.16699 56 -18.5s24.167 -28 30.5 -47s10.333 -38.5 12 -58.5s2.5 -43 2.5 -69v-192c0 -25.333 -0.833008 -47 -2.5 -65s-5.5 -35.5 -11.5 -52.5s-16.167 -30.833 -30.5 -41.5s-33.166 -16 -56.499 -16c-22.667 0 -40.834 5.16699 -54.501 15.5
s-23.834 23.666 -30.501 39.999s-11 33.166 -13 50.499s-3 36.333 -3 57v208zM222.003 815.002h101l148 146h-155z" />
    <glyph glyph-name="Ocircumflex" unicode="&#xd4;" horiz-adv-x="611" 
d="M61 328c0 -59.333 2.33691 -108.5 7.00391 -147.5s15 -73.5 31 -103.5s40.667 -53.333 74 -70s77.666 -25 132.999 -25s99.666 8.33301 132.999 25s58 40 74 70s26.333 64.5 31 103.5s7 88.167 7 147.5v107c-2 58 -5.66699 105.5 -11 142.5s-15.833 70 -31.5 99
s-39.834 51.5 -72.501 67.5s-76 24 -130 24s-97.333 -8 -130 -24s-56.834 -38.5 -72.501 -67.5s-26.167 -62 -31.5 -99s-9 -84.5 -11 -142.5v-107zM205.004 466c0 28 0.999023 52.502 2.99902 73.502s6.33301 40.333 13 58s16.834 31.667 30.501 42s31.834 15.5 54.501 15.5
c23.333 0 42 -6.16699 56 -18.5s24.167 -28 30.5 -47s10.333 -38.5 12 -58.5s2.5 -43 2.5 -69v-192c0 -25.333 -0.833008 -47 -2.5 -65s-5.5 -35.5 -11.5 -52.5s-16.167 -30.833 -30.5 -41.5s-33.166 -16 -56.499 -16c-22.667 0 -40.834 5.16699 -54.501 15.5
s-23.834 23.666 -30.501 39.999s-11 33.166 -13 50.499s-3 36.333 -3 57v208zM242.003 956.002l-113 -146h112l64 82l63 -82h114l-115 146h-125z" />
    <glyph glyph-name="Otilde" unicode="&#xd5;" horiz-adv-x="611" 
d="M61 328c0 -59.333 2.33691 -108.5 7.00391 -147.5s15 -73.5 31 -103.5s40.667 -53.333 74 -70s77.666 -25 132.999 -25s99.666 8.33301 132.999 25s58 40 74 70s26.333 64.5 31 103.5s7 88.167 7 147.5v107c-2 58 -5.66699 105.5 -11 142.5s-15.833 70 -31.5 99
s-39.834 51.5 -72.501 67.5s-76 24 -130 24s-97.333 -8 -130 -24s-56.834 -38.5 -72.501 -67.5s-26.167 -62 -31.5 -99s-9 -84.5 -11 -142.5v-107zM205.004 466c0 28 0.999023 52.502 2.99902 73.502s6.33301 40.333 13 58s16.834 31.667 30.501 42s31.834 15.5 54.501 15.5
c23.333 0 42 -6.16699 56 -18.5s24.167 -28 30.5 -47s10.333 -38.5 12 -58.5s2.5 -43 2.5 -69v-192c0 -25.333 -0.833008 -47 -2.5 -65s-5.5 -35.5 -11.5 -52.5s-16.167 -30.833 -30.5 -41.5s-33.166 -16 -56.499 -16c-22.667 0 -40.834 5.16699 -54.501 15.5
s-23.834 23.666 -30.501 39.999s-11 33.166 -13 50.499s-3 36.333 -3 57v208zM424.003 930.002c-7.33301 -28 -24.001 -42 -50.001 -42c-5.33301 0 -13 1.66699 -23 5s-21.333 7.66602 -34 12.999l-4 1l-12 5c-13.333 4.66699 -24.166 8 -32.499 10s-18.833 3 -31.5 3
c-25.333 0 -50 -11 -74 -33s-37.333 -52 -40 -90h62l1 2c2.66699 6.66699 6 13.334 10 20.001s9 11.667 15 15s13 5 21 5c7.33301 0 14.666 -1 21.999 -3s16.333 -5 27 -9l3 -1l4 -1c21.333 -6.66699 38.666 -11.834 51.999 -15.501s24 -5.5 32 -5.5
c12 0 23.833 1.83301 35.5 5.5s22.834 9.83398 33.501 18.501s20.334 21 29.001 37s15 36 19 60h-65z" />
    <glyph glyph-name="Odieresis" unicode="&#xd6;" horiz-adv-x="611" 
d="M61 328c0 -59.333 2.33691 -108.5 7.00391 -147.5s15 -73.5 31 -103.5s40.667 -53.333 74 -70s77.666 -25 132.999 -25s99.666 8.33301 132.999 25s58 40 74 70s26.333 64.5 31 103.5s7 88.167 7 147.5v107c-2 58 -5.66699 105.5 -11 142.5s-15.833 70 -31.5 99
s-39.834 51.5 -72.501 67.5s-76 24 -130 24s-97.333 -8 -130 -24s-56.834 -38.5 -72.501 -67.5s-26.167 -62 -31.5 -99s-9 -84.5 -11 -142.5v-107zM205.004 466c0 28 0.999023 52.502 2.99902 73.502s6.33301 40.333 13 58s16.834 31.667 30.501 42s31.834 15.5 54.501 15.5
c23.333 0 42 -6.16699 56 -18.5s24.167 -28 30.5 -47s10.333 -38.5 12 -58.5s2.5 -43 2.5 -69v-192c0 -25.333 -0.833008 -47 -2.5 -65s-5.5 -35.5 -11.5 -52.5s-16.167 -30.833 -30.5 -41.5s-33.166 -16 -56.499 -16c-22.667 0 -40.834 5.16699 -54.501 15.5
s-23.834 23.666 -30.501 39.999s-11 33.166 -13 50.499s-3 36.333 -3 57v208zM271.003 830.002v115h-127v-115h127zM467.003 830.002v115h-128v-115h128z" />
    <glyph glyph-name="multiply" unicode="&#xd7;" 
d="M170 249l-144 -144l78 -78l144 144l149 -149l78 78l-149 149l149 149l-78 78l-149 -149l-144 144l-78 -78z" />
    <glyph glyph-name="Oslash" unicode="&#xd8;" horiz-adv-x="611" 
d="M578 744l-49.999 35.001l-44 -71c-22.667 24.667 -47.167 40.834 -73.5 48.501s-61.166 11.5 -104.499 11.5c-54 0 -97.333 -8 -130 -24s-56.834 -38.5 -72.501 -67.5s-26.167 -62 -31.5 -99s-9 -84.5 -11 -142.5v-107c0 -54 2.33301 -101.167 7 -141.5
s13.667 -73.833 27 -100.5l-59 -94l49 -30l46 74c20.667 -20.667 44 -34.834 70 -42.501s61 -11.5 105 -11.5c55.333 0 99.666 8.33301 132.999 25s58 40 74 70s26.333 64.5 31 103.5s7 88.167 7 147.5v107v21c-1.33301 45.333 -3.83301 83.166 -7.5 113.499
s-11.5 57.833 -23.5 82.5zM206.001 275.001h-2.00098c0 6 0.333008 26 1 60v79c0 43.333 1 78.5 3 105.5s6.16699 50.833 12.5 71.5s16.333 36.5 30 47.5s32.167 16.5 55.5 16.5c30.667 0 52.334 -7.16699 65.001 -21.5s20 -33.833 22 -58.5zM405 478.001
l2.00195 0.00195312v-29c0.666992 -16.667 1 -26.667 1 -30c0 -6.66699 -0.333008 -26.667 -1 -60v-58c0 -32.667 -1 -60.334 -3 -83.001s-6.16699 -43.334 -12.5 -62.001s-16.5 -33.5 -30.5 -44.5s-32.333 -16.5 -55 -16.5c-28.667 0 -49.834 6.5 -63.501 19.5
s-22.834 32.167 -27.501 57.5z" />
    <glyph glyph-name="Ugrave" unicode="&#xd9;" horiz-adv-x="611" 
d="M404 239c0 -22 -0.833008 -41 -2.5 -57s-5.66699 -30.5 -12 -43.5s-16 -23.5 -29 -31.5s-30.5 -12 -52.5 -12c-22.667 0 -40.834 4 -54.501 12s-23.667 18.5 -30 31.5s-10.5 27.5 -12.5 43.5s-3 35 -3 57v511h-140v-523c0 -86 17.5 -148.333 52.5 -187
s97.167 -58 186.5 -58c88.667 0 150.334 19.333 185.001 58s52 101 52 187v523h-140v-511zM140 961l148 -146h101l-94 146h-155z" />
    <glyph glyph-name="Uacute" unicode="&#xda;" horiz-adv-x="611" 
d="M404 239c0 -22 -0.833008 -41 -2.5 -57s-5.66699 -30.5 -12 -43.5s-16 -23.5 -29 -31.5s-30.5 -12 -52.5 -12c-22.667 0 -40.834 4 -54.501 12s-23.667 18.5 -30 31.5s-10.5 27.5 -12.5 43.5s-3 35 -3 57v511h-140v-523c0 -86 17.5 -148.333 52.5 -187
s97.167 -58 186.5 -58c88.667 0 150.334 19.333 185.001 58s52 101 52 187v523h-140v-511zM222 815h101l148 146h-155z" />
    <glyph glyph-name="Ucircumflex" unicode="&#xdb;" horiz-adv-x="611" 
d="M404 239c0 -22 -0.833008 -41 -2.5 -57s-5.66699 -30.5 -12 -43.5s-16 -23.5 -29 -31.5s-30.5 -12 -52.5 -12c-22.667 0 -40.834 4 -54.501 12s-23.667 18.5 -30 31.5s-10.5 27.5 -12.5 43.5s-3 35 -3 57v511h-140v-523c0 -86 17.5 -148.333 52.5 -187
s97.167 -58 186.5 -58c88.667 0 150.334 19.333 185.001 58s52 101 52 187v523h-140v-511zM242 956l-113 -146h112l64 82l63 -82h114l-115 146h-125z" />
    <glyph glyph-name="Udieresis" unicode="&#xdc;" horiz-adv-x="611" 
d="M404 239c0 -22 -0.833008 -41 -2.5 -57s-5.66699 -30.5 -12 -43.5s-16 -23.5 -29 -31.5s-30.5 -12 -52.5 -12c-22.667 0 -40.834 4 -54.501 12s-23.667 18.5 -30 31.5s-10.5 27.5 -12.5 43.5s-3 35 -3 57v511h-140v-523c0 -86 17.5 -148.333 52.5 -187
s97.167 -58 186.5 -58c88.667 0 150.334 19.333 185.001 58s52 101 52 187v523h-140v-511zM271 830v115h-127v-115h127zM467 830v115h-128v-115h128z" />
    <glyph glyph-name="Yacute" unicode="&#xdd;" horiz-adv-x="556" 
d="M165 750l-153 0.00195312l195 -431v-319h140v319l198 431h-153l-67 -170c-1.33301 -3.33301 -3.33301 -8 -6 -14c-10.667 -26.667 -19 -48.834 -25 -66.501s-11 -38.167 -15 -61.5h-2c-5.33301 35.333 -16.333 73.666 -33 114.999zM195 815.002h101l148 146h-155z" />
    <glyph glyph-name="Thorn" unicode="&#xde;" horiz-adv-x="556" 
d="M208 522l75 0.00195312c37.333 0 63.666 -8.33301 78.999 -25s23 -44.334 23 -83.001s-7.66699 -66.334 -23 -83.001s-41.666 -25 -78.999 -25h-75v216zM68 0.00195312l140.001 -0.00195312v196h122c25.333 0 49.833 4.5 73.5 13.5s45 22.5 64 40.5s34 40.833 45 68.5
s16.5 59.5 16.5 95.5c0 29.333 -3 56.833 -9 82.5s-16.167 48.834 -30.5 69.501s-33.833 36.834 -58.5 48.501s-54.334 17.5 -89.001 17.5h-134v118h-140v-750z" />
    <glyph glyph-name="germandbls" unicode="&#xdf;" 
d="M354 436c25.333 7.33301 44.8369 22.3359 58.5039 45.0029s20.5 55.334 20.5 98.001c0 23.333 -3.33301 46.166 -10 68.499s-17.334 42.666 -32.001 60.999s-33.667 32.833 -57 43.5s-51.333 16 -84 16c-41.333 0 -75.166 -7 -101.499 -21s-45.666 -32.333 -57.999 -55
s-20.5 -46.834 -24.5 -72.501s-6 -54.5 -6 -86.5v-533h130v554c0 15.333 0.5 28.666 1.5 39.999s3.16699 22.833 6.5 34.5s9.16602 21.167 17.499 28.5s19.166 11 32.499 11c19.333 0 33.833 -5.83301 43.5 -17.5s14.5 -26.5 14.5 -44.5v-61
c0 -29.333 -4.16699 -47.833 -12.5 -55.5s-24.5 -12.5 -48.5 -14.5v-95c25.333 -0.666992 43.166 -7.33398 53.499 -20.001s15.5 -31.667 15.5 -57l1 -117c0 -28 -3.5 -51.5 -10.5 -70.5s-20.167 -28.833 -39.5 -29.5c-10.667 0 -20.334 2 -29.001 6v-92
c11.333 -4.66699 23.333 -8.33398 36 -11.001s25 -4 37 -4h10c4.66699 0.666992 7.66699 1 9 1c22.667 3.33301 41.667 12.333 57 27s27.333 32.834 36 54.501s14.834 45.667 18.501 72s5.5 54.5 5.5 84.5c-0.666992 62.667 -7.83398 111.334 -21.501 146.001
s-36.834 56 -69.501 64v2z" />
    <glyph glyph-name="agrave" unicode="&#xe0;" 
d="M440 0c-7.33301 27.333 -10.998 53.668 -10.998 79.001v333c0 24.667 -2.16699 46.5 -6.5 65.5s-12.833 36.167 -25.5 51.5s-31.5 27.5 -56.5 36.5s-57.5 13.5 -97.5 13.5c-38.667 0 -71 -4.16699 -97 -12.5s-46.333 -20.5 -61 -36.5s-24.834 -34.833 -30.501 -56.5
s-8.5 -47.167 -8.5 -76.5h124c0 28.667 4.66699 49.5 14 62.5s27.333 19.5 54 19.5c19.333 0 33.666 -1.83301 42.999 -5.5s15.333 -11.5 18 -23.5c2 -8 3 -15.333 3 -22c0 -16 -5.33301 -29.5 -16 -40.5s-27.667 -21.5 -51 -31.5c-6 -2.66699 -10.667 -4.66699 -14 -6
c-31.333 -12.667 -56.333 -23.667 -75 -33s-36.167 -21 -52.5 -35s-29 -31.5 -38 -52.5s-13.5 -46.167 -13.5 -75.5c0 -58 12 -100.667 36 -128s62.333 -41 115 -41c21.333 0 42 6.33301 62 19c18.667 11.333 36 29.333 52 54h2v-8
c-0.666992 -4.66699 -1 -7.33398 -1 -8.00098c0 -16 3 -30 9 -42h123zM299.002 236.002c0 -4.66699 -0.333008 -14.001 -1 -28.001c0 -18 -0.5 -33.5 -1.5 -46.5s-3.5 -25.333 -7.5 -37s-10.5 -21.167 -19.5 -28.5s-21.167 -11 -36.5 -11
c-22.667 0 -38.5 6.16699 -47.5 18.5s-13.5 30.166 -13.5 53.499c0 14.667 1.5 27.834 4.5 39.501s8.83301 21.167 17.5 28.5c16 12.667 40 29.334 72 50.001l33 22v-61zM85.002 775.001l148 -146h101l-94 146h-155z" />
    <glyph glyph-name="aacute" unicode="&#xe1;" 
d="M440 0c-7.33301 27.333 -10.998 53.668 -10.998 79.001v333c0 24.667 -2.16699 46.5 -6.5 65.5s-12.833 36.167 -25.5 51.5s-31.5 27.5 -56.5 36.5s-57.5 13.5 -97.5 13.5c-38.667 0 -71 -4.16699 -97 -12.5s-46.333 -20.5 -61 -36.5s-24.834 -34.833 -30.501 -56.5
s-8.5 -47.167 -8.5 -76.5h124c0 28.667 4.66699 49.5 14 62.5s27.333 19.5 54 19.5c19.333 0 33.666 -1.83301 42.999 -5.5s15.333 -11.5 18 -23.5c2 -8 3 -15.333 3 -22c0 -16 -5.33301 -29.5 -16 -40.5s-27.667 -21.5 -51 -31.5c-6 -2.66699 -10.667 -4.66699 -14 -6
c-31.333 -12.667 -56.333 -23.667 -75 -33s-36.167 -21 -52.5 -35s-29 -31.5 -38 -52.5s-13.5 -46.167 -13.5 -75.5c0 -58 12 -100.667 36 -128s62.333 -41 115 -41c21.333 0 42 6.33301 62 19c18.667 11.333 36 29.333 52 54h2v-8
c-0.666992 -4.66699 -1 -7.33398 -1 -8.00098c0 -16 3 -30 9 -42h123zM299.002 236.002c0 -4.66699 -0.333008 -14.001 -1 -28.001c0 -18 -0.5 -33.5 -1.5 -46.5s-3.5 -25.333 -7.5 -37s-10.5 -21.167 -19.5 -28.5s-21.167 -11 -36.5 -11
c-22.667 0 -38.5 6.16699 -47.5 18.5s-13.5 30.166 -13.5 53.499c0 14.667 1.5 27.834 4.5 39.501s8.83301 21.167 17.5 28.5c16 12.667 40 29.334 72 50.001l33 22v-61zM167.002 629.001h101l148 146h-155z" />
    <glyph glyph-name="acircumflex" unicode="&#xe2;" 
d="M440 0c-7.33301 27.333 -10.998 53.668 -10.998 79.001v333c0 24.667 -2.16699 46.5 -6.5 65.5s-12.833 36.167 -25.5 51.5s-31.5 27.5 -56.5 36.5s-57.5 13.5 -97.5 13.5c-38.667 0 -71 -4.16699 -97 -12.5s-46.333 -20.5 -61 -36.5s-24.834 -34.833 -30.501 -56.5
s-8.5 -47.167 -8.5 -76.5h124c0 28.667 4.66699 49.5 14 62.5s27.333 19.5 54 19.5c19.333 0 33.666 -1.83301 42.999 -5.5s15.333 -11.5 18 -23.5c2 -8 3 -15.333 3 -22c0 -16 -5.33301 -29.5 -16 -40.5s-27.667 -21.5 -51 -31.5c-6 -2.66699 -10.667 -4.66699 -14 -6
c-31.333 -12.667 -56.333 -23.667 -75 -33s-36.167 -21 -52.5 -35s-29 -31.5 -38 -52.5s-13.5 -46.167 -13.5 -75.5c0 -58 12 -100.667 36 -128s62.333 -41 115 -41c21.333 0 42 6.33301 62 19c18.667 11.333 36 29.333 52 54h2v-8
c-0.666992 -4.66699 -1 -7.33398 -1 -8.00098c0 -16 3 -30 9 -42h123zM299.002 236.002c0 -4.66699 -0.333008 -14.001 -1 -28.001c0 -18 -0.5 -33.5 -1.5 -46.5s-3.5 -25.333 -7.5 -37s-10.5 -21.167 -19.5 -28.5s-21.167 -11 -36.5 -11
c-22.667 0 -38.5 6.16699 -47.5 18.5s-13.5 30.166 -13.5 53.499c0 14.667 1.5 27.834 4.5 39.501s8.83301 21.167 17.5 28.5c16 12.667 40 29.334 72 50.001l33 22v-61zM187.002 770.001l-113 -146h112l64 82l63 -82h114l-115 146h-125z" />
    <glyph glyph-name="atilde" unicode="&#xe3;" 
d="M440 0c-7.33301 27.333 -10.998 53.668 -10.998 79.001v333c0 24.667 -2.16699 46.5 -6.5 65.5s-12.833 36.167 -25.5 51.5s-31.5 27.5 -56.5 36.5s-57.5 13.5 -97.5 13.5c-38.667 0 -71 -4.16699 -97 -12.5s-46.333 -20.5 -61 -36.5s-24.834 -34.833 -30.501 -56.5
s-8.5 -47.167 -8.5 -76.5h124c0 28.667 4.66699 49.5 14 62.5s27.333 19.5 54 19.5c19.333 0 33.666 -1.83301 42.999 -5.5s15.333 -11.5 18 -23.5c2 -8 3 -15.333 3 -22c0 -16 -5.33301 -29.5 -16 -40.5s-27.667 -21.5 -51 -31.5c-6 -2.66699 -10.667 -4.66699 -14 -6
c-31.333 -12.667 -56.333 -23.667 -75 -33s-36.167 -21 -52.5 -35s-29 -31.5 -38 -52.5s-13.5 -46.167 -13.5 -75.5c0 -58 12 -100.667 36 -128s62.333 -41 115 -41c21.333 0 42 6.33301 62 19c18.667 11.333 36 29.333 52 54h2v-8
c-0.666992 -4.66699 -1 -7.33398 -1 -8.00098c0 -16 3 -30 9 -42h123zM299.002 236.002c0 -4.66699 -0.333008 -14.001 -1 -28.001c0 -18 -0.5 -33.5 -1.5 -46.5s-3.5 -25.333 -7.5 -37s-10.5 -21.167 -19.5 -28.5s-21.167 -11 -36.5 -11
c-22.667 0 -38.5 6.16699 -47.5 18.5s-13.5 30.166 -13.5 53.499c0 14.667 1.5 27.834 4.5 39.501s8.83301 21.167 17.5 28.5c16 12.667 40 29.334 72 50.001l33 22v-61zM369.002 744.001c-7.33301 -28 -24.001 -42 -50.001 -42c-5.33301 0 -13 1.66699 -23 5
s-21.333 7.66602 -34 12.999l-4 1l-12 5c-13.333 4.66699 -24.166 8 -32.499 10s-18.833 3 -31.5 3c-25.333 0 -50 -11 -74 -33s-37.333 -52 -40 -90h62l1 2c2.66699 6.66699 6 13.334 10 20.001s9 11.667 15 15s13 5 21 5c7.33301 0 14.666 -1 21.999 -3s16.333 -5 27 -9
l3 -1l4 -1c21.333 -6.66699 38.666 -11.834 51.999 -15.501s24 -5.5 32 -5.5c12 0 23.833 1.83301 35.5 5.5s22.834 9.83398 33.501 18.501s20.334 21 29.001 37s15 36 19 60h-65z" />
    <glyph glyph-name="adieresis" unicode="&#xe4;" 
d="M440 0c-7.33301 27.333 -10.998 53.668 -10.998 79.001v333c0 24.667 -2.16699 46.5 -6.5 65.5s-12.833 36.167 -25.5 51.5s-31.5 27.5 -56.5 36.5s-57.5 13.5 -97.5 13.5c-38.667 0 -71 -4.16699 -97 -12.5s-46.333 -20.5 -61 -36.5s-24.834 -34.833 -30.501 -56.5
s-8.5 -47.167 -8.5 -76.5h124c0 28.667 4.66699 49.5 14 62.5s27.333 19.5 54 19.5c19.333 0 33.666 -1.83301 42.999 -5.5s15.333 -11.5 18 -23.5c2 -8 3 -15.333 3 -22c0 -16 -5.33301 -29.5 -16 -40.5s-27.667 -21.5 -51 -31.5c-6 -2.66699 -10.667 -4.66699 -14 -6
c-31.333 -12.667 -56.333 -23.667 -75 -33s-36.167 -21 -52.5 -35s-29 -31.5 -38 -52.5s-13.5 -46.167 -13.5 -75.5c0 -58 12 -100.667 36 -128s62.333 -41 115 -41c21.333 0 42 6.33301 62 19c18.667 11.333 36 29.333 52 54h2v-8
c-0.666992 -4.66699 -1 -7.33398 -1 -8.00098c0 -16 3 -30 9 -42h123zM299.002 236.002c0 -4.66699 -0.333008 -14.001 -1 -28.001c0 -18 -0.5 -33.5 -1.5 -46.5s-3.5 -25.333 -7.5 -37s-10.5 -21.167 -19.5 -28.5s-21.167 -11 -36.5 -11
c-22.667 0 -38.5 6.16699 -47.5 18.5s-13.5 30.166 -13.5 53.499c0 14.667 1.5 27.834 4.5 39.501s8.83301 21.167 17.5 28.5c16 12.667 40 29.334 72 50.001l33 22v-61zM216.002 644.001v115h-127v-115h127zM412.002 644.001v115h-128v-115h128z" />
    <glyph glyph-name="aring" unicode="&#xe5;" 
d="M440 0c-7.33301 27.333 -10.998 53.668 -10.998 79.001v333c0 24.667 -2.16699 46.5 -6.5 65.5s-12.833 36.167 -25.5 51.5s-31.5 27.5 -56.5 36.5s-57.5 13.5 -97.5 13.5c-38.667 0 -71 -4.16699 -97 -12.5s-46.333 -20.5 -61 -36.5s-24.834 -34.833 -30.501 -56.5
s-8.5 -47.167 -8.5 -76.5h124c0 28.667 4.66699 49.5 14 62.5s27.333 19.5 54 19.5c19.333 0 33.666 -1.83301 42.999 -5.5s15.333 -11.5 18 -23.5c2 -8 3 -15.333 3 -22c0 -16 -5.33301 -29.5 -16 -40.5s-27.667 -21.5 -51 -31.5c-6 -2.66699 -10.667 -4.66699 -14 -6
c-31.333 -12.667 -56.333 -23.667 -75 -33s-36.167 -21 -52.5 -35s-29 -31.5 -38 -52.5s-13.5 -46.167 -13.5 -75.5c0 -58 12 -100.667 36 -128s62.333 -41 115 -41c21.333 0 42 6.33301 62 19c18.667 11.333 36 29.333 52 54h2v-8
c-0.666992 -4.66699 -1 -7.33398 -1 -8.00098c0 -16 3 -30 9 -42h123zM299.002 236.002c0 -4.66699 -0.333008 -14.001 -1 -28.001c0 -18 -0.5 -33.5 -1.5 -46.5s-3.5 -25.333 -7.5 -37s-10.5 -21.167 -19.5 -28.5s-21.167 -11 -36.5 -11
c-22.667 0 -38.5 6.16699 -47.5 18.5s-13.5 30.166 -13.5 53.499c0 14.667 1.5 27.834 4.5 39.501s8.83301 21.167 17.5 28.5c16 12.667 40 29.334 72 50.001l33 22v-61zM236.002 622.001c29.333 0 54.333 10.333 75 31s31 45.667 31 75s-10.333 54.5 -31 75.5
s-45.667 31.5 -75 31.5c-28.667 0 -53.667 -10.667 -75 -32s-32 -46.333 -32 -75s10.667 -53.5 32 -74.5s46.333 -31.5 75 -31.5zM236.002 786.001c15.333 0 28.833 -5.83105 40.5 -17.498s17.5 -25.167 17.5 -40.5c0 -14.667 -5.83301 -27.834 -17.5 -39.501
s-25.167 -17.5 -40.5 -17.5s-28.833 5.66699 -40.5 17s-17.5 24.666 -17.5 39.999c0 16 5.66699 29.667 17 41s25 17 41 17z" />
    <glyph glyph-name="ae" unicode="&#xe6;" horiz-adv-x="722" 
d="M176 400c1.33301 29.333 5.50098 49.8369 12.501 61.5039s24.167 17.5 51.5 17.5c20 0 35 -3.5 45 -10.5s15 -19.833 15 -38.5c0 -20.667 -6.66699 -36.334 -20 -47.001s-35 -22.334 -65 -35.001c-29.333 -12 -51.666 -22.333 -66.999 -31
c-40.667 -22.667 -68.167 -45.834 -82.5 -69.501s-21.5 -58.5 -21.5 -104.5c0 -57.333 14.667 -98 44 -122s73 -36 131 -36c27.333 0 52.666 4.83301 75.999 14.5s41.666 24.5 54.999 44.5c18 -22 37.167 -37.333 57.5 -46s46.5 -13 78.5 -13
c35.333 0 65.166 5.16699 89.499 15.5s43.5 24.666 57.5 42.999s24 40 30 65s9 52.833 9 83.5h-131v-53c-3.33301 -36 -21.666 -54 -54.999 -54c-25.333 0 -41.666 10.333 -48.999 31s-11 51.667 -11 93v50h245v145c-2 64 -18.667 109.167 -50 135.5
s-74.666 39.5 -129.999 39.5c-24 0 -45.333 -2.66699 -64 -8s-36.334 -14.666 -53.001 -27.999c-36 24 -79.333 36 -130 36c-20.667 0 -40.334 -1.33301 -59.001 -4s-36.5 -7.33398 -53.5 -14.001s-31.833 -16 -44.5 -28s-22 -27.333 -28 -46c-8.66699 -28 -13 -57 -13 -87
h130zM296.001 182.004c0 -64.667 -23.333 -97.001 -70 -97.001c-18.667 0 -32 5.83301 -40 17.5s-12 30.834 -12 57.501c0 28 6.83301 49.5 20.5 64.5s34.5 30.833 62.5 47.5c17.333 10 30.333 18 39 24v-114zM426.001 359.003v56c2 19.333 7.66699 34.833 17 46.5
s23 17.5 41 17.5s32 -4.33301 42 -13s15 -25.667 15 -51v-56h-115z" />
    <glyph glyph-name="ccedilla" unicode="&#xe7;" horiz-adv-x="444" 
d="M152 -90l21 -20.0029c16 5.33301 29.667 8 41 8c8.66699 0 16.667 -1.66699 24 -5c10 -3.33301 16.667 -11.333 20 -24c0 -13.333 -4.5 -24.333 -13.5 -33s-19.167 -13 -30.5 -13c-15.333 0 -28.833 1.16699 -40.5 3.5s-26.834 6.5 -45.501 12.5l-19 -42l24 -8
c17.333 -6 31 -10.333 41 -13c15.333 -2.66699 30 -4 44 -4c23.333 0 44.833 3.83301 64.5 11.5s36.167 19.834 49.5 36.501c5.33301 9.33301 8.83301 17 10.5 23s2.5 13.667 2.5 23c0 10.667 -1.83301 20.834 -5.5 30.501s-9.16699 17.167 -16.5 22.5
c-8.66699 8.66699 -18.667 14.834 -30 18.501s-24 5.5 -38 5.5c-12.667 0 -23 -2 -31 -6l-2 2l33 48c52 4.66699 89.667 22 113 52s35 73 35 129v52h-130v-52l-1 -7c-2 -26.667 -5.5 -45.834 -10.5 -57.501s-16.167 -17.834 -33.5 -18.501
c-18.667 2.66699 -31.5 12.334 -38.5 29.001s-10.5 52 -10.5 106v133c0 46 3 78.5 9 97.5s19.333 28.5 40 28.5c28 0 43 -16 45 -48v-63h130v45c0 22.667 -3.33301 43.834 -10 63.501s-17 37.167 -31 52.5s-32.5 27.5 -55.5 36.5s-50.167 13.5 -81.5 13.5
c-26 0 -49.5 -3.16699 -70.5 -9.5s-39.5 -17 -55.5 -32s-28.333 -35.667 -37 -62s-13 -58.5 -13 -96.5v-183c0 -70 12.833 -121.5 38.5 -154.5s63.834 -51.167 114.501 -54.5z" />
    <glyph glyph-name="egrave" unicode="&#xe8;" 
d="M53 222c0 -84 16.332 -144.5 48.999 -181.5s85.667 -55.5 159 -55.5c62 0 107.5 17.333 136.5 52s43.5 86 43.5 154h-130c0 -38 -4.5 -65.167 -13.5 -81.5s-24.5 -24.5 -46.5 -24.5s-38.667 6.16699 -50 18.5s-17.333 35.5 -18 69.5v82h260v76
c0 43.333 -2.16699 79.5 -6.5 108.5s-13.166 54 -26.499 75s-33.5 37 -60.5 48s-62.5 16.5 -106.5 16.5c-126.667 0 -190 -69.667 -190 -209v-148zM182.999 355v23.001c0 36 3.66699 61.833 11 77.5s24.333 23.5 51 23.5c26 0 43.667 -5.33301 53 -16
s14.333 -30.334 15 -59.001v-49h-130zM84.999 775.001l148 -146h101l-94 146h-155z" />
    <glyph glyph-name="eacute" unicode="&#xe9;" 
d="M53 222c0 -84 16.332 -144.5 48.999 -181.5s85.667 -55.5 159 -55.5c62 0 107.5 17.333 136.5 52s43.5 86 43.5 154h-130c0 -38 -4.5 -65.167 -13.5 -81.5s-24.5 -24.5 -46.5 -24.5s-38.667 6.16699 -50 18.5s-17.333 35.5 -18 69.5v82h260v76
c0 43.333 -2.16699 79.5 -6.5 108.5s-13.166 54 -26.499 75s-33.5 37 -60.5 48s-62.5 16.5 -106.5 16.5c-126.667 0 -190 -69.667 -190 -209v-148zM182.999 355v23.001c0 36 3.66699 61.833 11 77.5s24.333 23.5 51 23.5c26 0 43.667 -5.33301 53 -16
s14.333 -30.334 15 -59.001v-49h-130zM166.999 629.001h101l148 146h-155z" />
    <glyph glyph-name="ecircumflex" unicode="&#xea;" 
d="M53 222c0 -84 16.332 -144.5 48.999 -181.5s85.667 -55.5 159 -55.5c62 0 107.5 17.333 136.5 52s43.5 86 43.5 154h-130c0 -38 -4.5 -65.167 -13.5 -81.5s-24.5 -24.5 -46.5 -24.5s-38.667 6.16699 -50 18.5s-17.333 35.5 -18 69.5v82h260v76
c0 43.333 -2.16699 79.5 -6.5 108.5s-13.166 54 -26.499 75s-33.5 37 -60.5 48s-62.5 16.5 -106.5 16.5c-126.667 0 -190 -69.667 -190 -209v-148zM182.999 355v23.001c0 36 3.66699 61.833 11 77.5s24.333 23.5 51 23.5c26 0 43.667 -5.33301 53 -16
s14.333 -30.334 15 -59.001v-49h-130zM186.999 770.001l-113 -146h112l64 82l63 -82h114l-115 146h-125z" />
    <glyph glyph-name="edieresis" unicode="&#xeb;" 
d="M53 222c0 -84 16.332 -144.5 48.999 -181.5s85.667 -55.5 159 -55.5c62 0 107.5 17.333 136.5 52s43.5 86 43.5 154h-130c0 -38 -4.5 -65.167 -13.5 -81.5s-24.5 -24.5 -46.5 -24.5s-38.667 6.16699 -50 18.5s-17.333 35.5 -18 69.5v82h260v76
c0 43.333 -2.16699 79.5 -6.5 108.5s-13.166 54 -26.499 75s-33.5 37 -60.5 48s-62.5 16.5 -106.5 16.5c-126.667 0 -190 -69.667 -190 -209v-148zM182.999 355v23.001c0 36 3.66699 61.833 11 77.5s24.333 23.5 51 23.5c26 0 43.667 -5.33301 53 -16
s14.333 -30.334 15 -59.001v-49h-130zM215.999 644.001v115h-127v-115h127zM411.999 644.001v115h-128v-115h128z" />
    <glyph glyph-name="igrave" unicode="&#xec;" horiz-adv-x="278" 
d="M204 0v564h-130v-564h130zM-26 775l148 -146h101l-94 146h-155z" />
    <glyph glyph-name="iacute" unicode="&#xed;" horiz-adv-x="278" 
d="M204 0v564h-130v-564h130zM56 629h101l148 146h-155z" />
    <glyph glyph-name="icircumflex" unicode="&#xee;" horiz-adv-x="278" 
d="M204 0v564h-130v-564h130zM65 770l-113 -146h112l64 82l63 -82h114l-115 146h-125z" />
    <glyph glyph-name="idieresis" unicode="&#xef;" horiz-adv-x="278" 
d="M204 0v564h-130v-564h130zM105 644v115h-127v-115h127zM301 644v115h-128v-115h128z" />
    <glyph glyph-name="eth" unicode="&#xf0;" 
d="M183 346c0 18 0.5 32.5 1.5 43.5s3.5 21.333 7.5 31s10.667 17.5 20 23.5s22 9 38 9s28.667 -3 38 -9s16 -13.833 20 -23.5s6.5 -20 7.5 -31s1.5 -25.5 1.5 -43.5v-162c0 -38 -3.83301 -64 -11.5 -78s-26.167 -21 -55.5 -21c-28.667 0 -47 7 -55 21s-12 40 -12 78v162z
M112 622l45.001 -35l59 47c17.333 -11.333 35 -28.166 53 -50.499s29.667 -43.5 35 -63.5l-2 -2c-18 17.333 -48 26 -90 26c-60.667 0 -102.334 -21.333 -125.001 -64s-34 -115.334 -34 -218.001c0 -52.667 2.5 -95.834 7.5 -129.501s14.333 -61.5 28 -83.5
s33.5 -38.167 59.5 -48.5s60 -15.5 102 -15.5c42.667 0 76.834 5.16699 102.501 15.5s45.334 26.5 59.001 48.5s23 49.833 28 83.5s7.5 76.834 7.5 129.501v108c0 46 -4 87.333 -12 124s-18.833 68.334 -32.5 95.001s-28.834 49.167 -45.501 67.5
s-34.334 34.166 -53.001 47.499l50 40l-45 35l-50 -40c-20.667 14.667 -45 28 -73 40l-87 -74c32 -16 55 -29 69 -39z" />
    <glyph glyph-name="ntilde" unicode="&#xf1;" 
d="M191 564l-130 0.000976562v-564h130v365c0 33.333 5 59 15 77s26.333 27 49 27c22.667 -0.666992 37.5 -8.5 44.5 -23.5s10.5 -38.167 10.5 -69.5v-376h130v435c0 49.333 -12 85.666 -36 108.999s-55.333 35 -94 35c-9.33301 0 -19 -0.833008 -29 -2.5
s-20.5 -5 -31.5 -10s-21.5 -12.5 -31.5 -22.5s-18.333 -22.667 -25 -38h-2v58zM369 744.001c-7.33301 -28 -24.001 -42 -50.001 -42c-5.33301 0 -13 1.66699 -23 5s-21.333 7.66602 -34 12.999l-4 1l-12 5c-13.333 4.66699 -24.166 8 -32.499 10s-18.833 3 -31.5 3
c-25.333 0 -50 -11 -74 -33s-37.333 -52 -40 -90h62l1 2c2.66699 6.66699 6 13.334 10 20.001s9 11.667 15 15s13 5 21 5c7.33301 0 14.666 -1 21.999 -3s16.333 -5 27 -9l3 -1l4 -1c21.333 -6.66699 38.666 -11.834 51.999 -15.501s24 -5.5 32 -5.5
c12 0 23.833 1.83301 35.5 5.5s22.834 9.83398 33.501 18.501s20.334 21 29.001 37s15 36 19 60h-65z" />
    <glyph glyph-name="ograve" unicode="&#xf2;" 
d="M183 372c0 18 0.5 32.5 1.5 43.5s3.66699 21.333 8 31s11.166 17.5 20.499 23.5s22.333 9 39 9c15.333 0 27.5 -2.83301 36.5 -8.5s15.5 -13.5 19.5 -23.5s6.5 -20.5 7.5 -31.5s1.5 -25.5 1.5 -43.5v-188c0 -38 -3.83301 -64 -11.5 -78s-25.5 -21 -53.5 -21
c-29.333 0 -48.166 7 -56.499 21s-12.5 40 -12.5 78v188zM252 -15c41.333 0 74.832 5.16602 100.499 15.499s45.334 26.5 59.001 48.5s23 49.833 28 83.5s7.5 76.834 7.5 129.501c0 59.333 -1.5 106.5 -4.5 141.5s-10.5 65.833 -22.5 92.5s-31.333 47.167 -58 61.5
s-63.334 21.5 -110.001 21.5c-47.333 0 -84.666 -7.16699 -111.999 -21.5s-47 -34.833 -59 -61.5s-19.5 -57 -22.5 -91s-4.83301 -81.667 -5.5 -143c0 -52 2.66699 -95 8 -129s15 -62 29 -84s34 -38.167 60 -48.5s60 -15.5 102 -15.5zM84.999 774.999l148 -146h101l-94 146
h-155z" />
    <glyph glyph-name="oacute" unicode="&#xf3;" 
d="M183 372c0 18 0.5 32.5 1.5 43.5s3.66699 21.333 8 31s11.166 17.5 20.499 23.5s22.333 9 39 9c15.333 0 27.5 -2.83301 36.5 -8.5s15.5 -13.5 19.5 -23.5s6.5 -20.5 7.5 -31.5s1.5 -25.5 1.5 -43.5v-188c0 -38 -3.83301 -64 -11.5 -78s-25.5 -21 -53.5 -21
c-29.333 0 -48.166 7 -56.499 21s-12.5 40 -12.5 78v188zM252 -15c41.333 0 74.832 5.16602 100.499 15.499s45.334 26.5 59.001 48.5s23 49.833 28 83.5s7.5 76.834 7.5 129.501c0 59.333 -1.5 106.5 -4.5 141.5s-10.5 65.833 -22.5 92.5s-31.333 47.167 -58 61.5
s-63.334 21.5 -110.001 21.5c-47.333 0 -84.666 -7.16699 -111.999 -21.5s-47 -34.833 -59 -61.5s-19.5 -57 -22.5 -91s-4.83301 -81.667 -5.5 -143c0 -52 2.66699 -95 8 -129s15 -62 29 -84s34 -38.167 60 -48.5s60 -15.5 102 -15.5zM166.999 628.999h101l148 146h-155z
" />
    <glyph glyph-name="ocircumflex" unicode="&#xf4;" 
d="M183 372c0 18 0.5 32.5 1.5 43.5s3.66699 21.333 8 31s11.166 17.5 20.499 23.5s22.333 9 39 9c15.333 0 27.5 -2.83301 36.5 -8.5s15.5 -13.5 19.5 -23.5s6.5 -20.5 7.5 -31.5s1.5 -25.5 1.5 -43.5v-188c0 -38 -3.83301 -64 -11.5 -78s-25.5 -21 -53.5 -21
c-29.333 0 -48.166 7 -56.499 21s-12.5 40 -12.5 78v188zM252 -15c41.333 0 74.832 5.16602 100.499 15.499s45.334 26.5 59.001 48.5s23 49.833 28 83.5s7.5 76.834 7.5 129.501c0 59.333 -1.5 106.5 -4.5 141.5s-10.5 65.833 -22.5 92.5s-31.333 47.167 -58 61.5
s-63.334 21.5 -110.001 21.5c-47.333 0 -84.666 -7.16699 -111.999 -21.5s-47 -34.833 -59 -61.5s-19.5 -57 -22.5 -91s-4.83301 -81.667 -5.5 -143c0 -52 2.66699 -95 8 -129s15 -62 29 -84s34 -38.167 60 -48.5s60 -15.5 102 -15.5zM186.999 769.999l-113 -146h112l64 82
l63 -82h114l-115 146h-125z" />
    <glyph glyph-name="otilde" unicode="&#xf5;" 
d="M183 372c0 18 0.5 32.5 1.5 43.5s3.66699 21.333 8 31s11.166 17.5 20.499 23.5s22.333 9 39 9c15.333 0 27.5 -2.83301 36.5 -8.5s15.5 -13.5 19.5 -23.5s6.5 -20.5 7.5 -31.5s1.5 -25.5 1.5 -43.5v-188c0 -38 -3.83301 -64 -11.5 -78s-25.5 -21 -53.5 -21
c-29.333 0 -48.166 7 -56.499 21s-12.5 40 -12.5 78v188zM252 -15c41.333 0 74.832 5.16602 100.499 15.499s45.334 26.5 59.001 48.5s23 49.833 28 83.5s7.5 76.834 7.5 129.501c0 59.333 -1.5 106.5 -4.5 141.5s-10.5 65.833 -22.5 92.5s-31.333 47.167 -58 61.5
s-63.334 21.5 -110.001 21.5c-47.333 0 -84.666 -7.16699 -111.999 -21.5s-47 -34.833 -59 -61.5s-19.5 -57 -22.5 -91s-4.83301 -81.667 -5.5 -143c0 -52 2.66699 -95 8 -129s15 -62 29 -84s34 -38.167 60 -48.5s60 -15.5 102 -15.5zM368.999 743.999
c-7.33301 -28 -24.001 -42 -50.001 -42c-5.33301 0 -13 1.66699 -23 5s-21.333 7.66602 -34 12.999l-4 1l-12 5c-13.333 4.66699 -24.166 8 -32.499 10s-18.833 3 -31.5 3c-25.333 0 -50 -11 -74 -33s-37.333 -52 -40 -90h62l1 2c2.66699 6.66699 6 13.334 10 20.001
s9 11.667 15 15s13 5 21 5c7.33301 0 14.666 -1 21.999 -3s16.333 -5 27 -9l3 -1l4 -1c21.333 -6.66699 38.666 -11.834 51.999 -15.501s24 -5.5 32 -5.5c12 0 23.833 1.83301 35.5 5.5s22.834 9.83398 33.501 18.501s20.334 21 29.001 37s15 36 19 60h-65z" />
    <glyph glyph-name="odieresis" unicode="&#xf6;" 
d="M183 372c0 18 0.5 32.5 1.5 43.5s3.66699 21.333 8 31s11.166 17.5 20.499 23.5s22.333 9 39 9c15.333 0 27.5 -2.83301 36.5 -8.5s15.5 -13.5 19.5 -23.5s6.5 -20.5 7.5 -31.5s1.5 -25.5 1.5 -43.5v-188c0 -38 -3.83301 -64 -11.5 -78s-25.5 -21 -53.5 -21
c-29.333 0 -48.166 7 -56.499 21s-12.5 40 -12.5 78v188zM252 -15c41.333 0 74.832 5.16602 100.499 15.499s45.334 26.5 59.001 48.5s23 49.833 28 83.5s7.5 76.834 7.5 129.501c0 59.333 -1.5 106.5 -4.5 141.5s-10.5 65.833 -22.5 92.5s-31.333 47.167 -58 61.5
s-63.334 21.5 -110.001 21.5c-47.333 0 -84.666 -7.16699 -111.999 -21.5s-47 -34.833 -59 -61.5s-19.5 -57 -22.5 -91s-4.83301 -81.667 -5.5 -143c0 -52 2.66699 -95 8 -129s15 -62 29 -84s34 -38.167 60 -48.5s60 -15.5 102 -15.5zM215.999 643.999v115h-127v-115h127z
M411.999 643.999v115h-128v-115h128z" />
    <glyph glyph-name="divide" unicode="&#xf7;" 
d="M26 194h449v110h-449v-110zM313 377v115h-127v-115h127zM313 6v115h-127v-115h127z" />
    <glyph glyph-name="oslash" unicode="&#xf8;" 
d="M315 338l2 -0.000976562v-154c0 -38 -3.83301 -64 -11.5 -78s-25.5 -21 -53.5 -21c-23.333 0 -39.833 4.33301 -49.5 13s-15.5 23.334 -17.5 44.001zM390 538.999c-30 26.667 -76.001 39.999 -138.001 39.999c-47.333 0 -84.666 -7.16699 -111.999 -21.5
s-47 -34.833 -59 -61.5s-19.5 -57 -22.5 -91s-4.83301 -81.667 -5.5 -143c0 -45.333 1.83301 -82.666 5.5 -111.999s9.5 -54.333 17.5 -75l-69 -99l53 -34l54 78c15.333 -12 34 -20.833 56 -26.5s49.667 -8.5 83 -8.5c41.333 0 74.666 5.16699 99.999 15.5
s44.833 26.5 58.5 48.5s23 50 28 84s7.5 77 7.5 129c0 58 -1.16699 103.333 -3.5 136s-8.16602 61 -17.499 85l66 99l-49 35zM184.999 218.998h-1.99902v153c0 18 0.5 32.5 1.5 43.5s3.66699 21.333 8 31s11.166 17.5 20.499 23.5s22.333 9 39 9
c22 0 37.5 -5.66699 46.5 -17s14.5 -27.333 16.5 -48z" />
    <glyph glyph-name="ugrave" unicode="&#xf9;" 
d="M307 0l123.998 0.00195312v564h-130v-366c0 -16.667 -0.5 -30.834 -1.5 -42.501s-3.33301 -23 -7 -34s-9.66699 -19.833 -18 -26.5s-19.5 -10 -33.5 -10c-15.333 0 -28.666 6 -39.999 18c-5.33301 8.66699 -8.83301 18.667 -10.5 30s-2.5 26.333 -2.5 45v386h-130v-432
c0 -50.667 8.83301 -87.834 26.5 -111.501s50.834 -35.5 99.501 -35.5c31.333 0.666992 56.833 9 76.5 25s34.5 40.667 44.5 74h2v-84zM84.998 775.002l148 -146h101l-94 146h-155z" />
    <glyph glyph-name="uacute" unicode="&#xfa;" 
d="M307 0l123.998 0.00195312v564h-130v-366c0 -16.667 -0.5 -30.834 -1.5 -42.501s-3.33301 -23 -7 -34s-9.66699 -19.833 -18 -26.5s-19.5 -10 -33.5 -10c-15.333 0 -28.666 6 -39.999 18c-5.33301 8.66699 -8.83301 18.667 -10.5 30s-2.5 26.333 -2.5 45v386h-130v-432
c0 -50.667 8.83301 -87.834 26.5 -111.501s50.834 -35.5 99.501 -35.5c31.333 0.666992 56.833 9 76.5 25s34.5 40.667 44.5 74h2v-84zM166.998 629.002h101l148 146h-155z" />
    <glyph glyph-name="ucircumflex" unicode="&#xfb;" 
d="M307 0l123.998 0.00195312v564h-130v-366c0 -16.667 -0.5 -30.834 -1.5 -42.501s-3.33301 -23 -7 -34s-9.66699 -19.833 -18 -26.5s-19.5 -10 -33.5 -10c-15.333 0 -28.666 6 -39.999 18c-5.33301 8.66699 -8.83301 18.667 -10.5 30s-2.5 26.333 -2.5 45v386h-130v-432
c0 -50.667 8.83301 -87.834 26.5 -111.501s50.834 -35.5 99.501 -35.5c31.333 0.666992 56.833 9 76.5 25s34.5 40.667 44.5 74h2v-84zM186.998 780.002l-113 -146h112l64 82l63 -82h114l-115 146h-125z" />
    <glyph glyph-name="udieresis" unicode="&#xfc;" 
d="M307 0l123.998 0.00195312v564h-130v-366c0 -16.667 -0.5 -30.834 -1.5 -42.501s-3.33301 -23 -7 -34s-9.66699 -19.833 -18 -26.5s-19.5 -10 -33.5 -10c-15.333 0 -28.666 6 -39.999 18c-5.33301 8.66699 -8.83301 18.667 -10.5 30s-2.5 26.333 -2.5 45v386h-130v-432
c0 -50.667 8.83301 -87.834 26.5 -111.501s50.834 -35.5 99.501 -35.5c31.333 0.666992 56.833 9 76.5 25s34.5 40.667 44.5 74h2v-84zM215.998 644.002v115h-127v-115h127zM411.998 644.002v115h-128v-115h128z" />
    <glyph glyph-name="yacute" unicode="&#xfd;" horiz-adv-x="444" 
d="M5 564l136 -555.999c3.33301 -12.667 6.16602 -25.5 8.49902 -38.5s3.5 -24.167 3.5 -33.5c0 -10 -4 -17 -12 -21s-18.333 -6 -31 -6c-4.66699 0 -11.667 0.333008 -21 1c-8 0.666992 -12.333 1 -13 1v-101c22.667 -3.33301 43 -5 61 -5c26 0 47.5 3.5 64.5 10.5
s30.333 17.167 40 30.5s17.334 28 23.001 44s12.167 39.667 19.5 71l8 31l137 572h-132l-57 -303c-9.33301 -50.667 -16 -99.334 -20 -146.001h-2c-6.66699 66.667 -13 116.667 -19 150l-57 299h-137zM139 629.001h101l148 146h-155z" />
    <glyph glyph-name="thorn" unicode="&#xfe;" 
d="M308 194c0 -34.667 -4.66797 -61.5 -14.001 -80.5s-23.666 -28.5 -42.999 -28.5c-42 0 -63 33.333 -63 100v169c0 42.667 4 74.167 12 94.5s24.333 30.5 49 30.5c21.333 0 36.5 -8.5 45.5 -25.5s13.5 -40.833 13.5 -71.5v-188zM57.999 -189l130 -0.000976562v241h2
c12.667 -24.667 28 -42 46 -52s40.333 -15 67 -15s48.834 5.33301 66.501 16s31.5 25.334 41.5 44.001s17 39.5 21 62.5s6 47.833 6 74.5v188c0 76 -11.333 129.833 -34 161.5s-56.334 47.5 -101.001 47.5c-28 0 -50.833 -5.66699 -68.5 -17s-32.5 -30.333 -44.5 -57h-2v245
h-130v-939z" />
    <glyph glyph-name="ydieresis" unicode="&#xff;" horiz-adv-x="444" 
d="M5 564l136 -555.999c3.33301 -12.667 6.16602 -25.5 8.49902 -38.5s3.5 -24.167 3.5 -33.5c0 -10 -4 -17 -12 -21s-18.333 -6 -31 -6c-4.66699 0 -11.667 0.333008 -21 1c-8 0.666992 -12.333 1 -13 1v-101c22.667 -3.33301 43 -5 61 -5c26 0 47.5 3.5 64.5 10.5
s30.333 17.167 40 30.5s17.334 28 23.001 44s12.167 39.667 19.5 71l8 31l137 572h-132l-57 -303c-9.33301 -50.667 -16 -99.334 -20 -146.001h-2c-6.66699 66.667 -13 116.667 -19 150l-57 299h-137zM188 644.001v115h-127v-115h127zM384 644.001v115h-128v-115h128z" />
    <glyph glyph-name="OE" unicode="&#x152;" horiz-adv-x="833" 
d="M405 226c0 -21.333 -1.16797 -39.499 -3.50098 -54.499s-7 -28.333 -14 -40s-17.167 -20.667 -30.5 -27s-30.666 -9.5 -51.999 -9.5c-22 0 -40.167 6.83301 -54.5 20.5s-25 31.5 -32 53.5s-11.5 45.167 -13.5 69.5s-3 50.166 -3 77.499v33v22v23v32
c0 28 1.16699 54.333 3.5 79s7 48 14 70s17.667 40.333 32 55s33.166 23 56.499 25c18.667 0 34.334 -3.33301 47.001 -10s22.667 -15.667 30 -27s12.5 -24 15.5 -38s4.5 -29 4.5 -45v-309zM544.999 110.001v230.002h229v110h-229v190h247v110h-375v-59l-2 2v-2h-2
c-13.333 26.667 -32.333 46.167 -57 58.5s-50.667 18.5 -78 18.5c-42 0 -77.167 -9.66699 -105.5 -29s-50.666 -45 -66.999 -77s-27.833 -67.333 -34.5 -106s-10 -79 -10 -121c0 -72.667 2.16699 -134.334 6.5 -185.001s13.666 -96.334 27.999 -137.001
s36.333 -72.667 66 -96s69.167 -35 118.5 -35c16.667 0 38.667 8.33301 66 25s49 38.667 65 66h2v-73h379v110h-247z" />
    <glyph glyph-name="oe" unicode="&#x153;" horiz-adv-x="722" 
d="M678 363c0 30.667 -3.83496 59.832 -11.502 87.499s-19.834 53.167 -36.501 76.5c-14.667 20 -34 33.667 -58 41s-47 11 -69 11c-29.333 0 -55.833 -4.16699 -79.5 -12.5s-43.167 -23.166 -58.5 -44.499c-20 20.667 -39.167 35.167 -57.5 43.5
s-39.166 12.833 -62.499 13.5c-47.333 0 -84.666 -7.33301 -111.999 -22s-47.166 -35.334 -59.499 -62.001s-19.833 -56.667 -22.5 -90s-4.33398 -81 -5.00098 -143c0 -52 2.66699 -95 8 -129s15 -62 29 -84s34 -38.167 60 -48.5s60 -15.5 102 -15.5
c18.667 0 39 4.33301 61 13s41.667 22 59 40c13.333 -16.667 29.833 -29.667 49.5 -39s39.834 -14 60.501 -14c74 0 126.333 15.833 157 47.5s46 84.834 46 159.501h-130v-42c0 -43.333 -20.667 -65 -62 -65c-20 0 -34.167 7.83301 -42.5 23.5s-12.5 46.167 -12.5 91.5v58
h247v105zM428.998 357.998v20c0 14.667 0.5 27.167 1.5 37.5s3.33301 20.333 7 30s9.5 17.667 17.5 24s18.667 9.5 32 9.5c22.667 0 38.5 -6.66699 47.5 -20s13.5 -35.333 13.5 -66v-35h-119zM175.998 371.998c0 39.333 4.66699 67 14 83s25 24 47 24
c24 0 40.333 -6.5 49 -19.5s13.667 -36.833 15 -71.5v-165c0 -56.667 -5 -93.834 -15 -111.501s-26.333 -26.5 -49 -26.5c-22.667 0.666992 -38 8 -46 22c-4.66699 8.66699 -8.16699 21.334 -10.5 38.001s-3.83301 40 -4.5 70v157z" />
    <glyph glyph-name="Scaron" unicode="&#x160;" horiz-adv-x="556" 
d="M489 522l-0.00195312 8.00488c0 28.667 -1.66699 55 -5 79s-11.833 48.333 -25.5 73s-35.667 45.167 -66 61.5s-70.833 24.5 -121.5 24.5c-73.333 0 -128.333 -16.833 -165 -50.5s-55 -82.834 -55 -147.501c0 -41.333 12 -79.666 36 -114.999
c17.333 -22 36.833 -41.667 58.5 -59s50.5 -37.666 86.5 -60.999c34.667 -22.667 60 -40.334 76 -53.001c18.667 -12.667 32.667 -27 42 -43s14 -34.667 14 -56c0 -58.667 -29 -88 -87 -88c-31.333 0 -53.833 10.667 -67.5 32s-20.5 52.666 -20.5 93.999v44h-140v-55
c0 -34.667 4.16699 -65.834 12.5 -93.501s21.5 -51.5 39.5 -71.5s41.667 -35.5 71 -46.5s64.333 -16.5 105 -16.5c70 0 126 18.667 168 56s63 90.666 63 159.999c0 33.333 -4.66699 62.166 -14 86.499s-25.666 47.833 -48.999 70.5
c-9.33301 9.33301 -21.5 19.666 -36.5 30.999l-44.5 32.5l-43 29.5l-46 30l-2 1c-27.333 18 -47.166 33.833 -59.499 47.5s-18.5 33.167 -18.5 58.5c0 24.667 6.66699 42.5 20 53.5s32.333 16.5 57 16.5c33.333 0 55.333 -11.333 66 -34s16 -55.667 16 -99h135z
M454.998 946.005h-114l-63 -82l-64 82h-112l113 -146h125z" />
    <glyph glyph-name="scaron" unicode="&#x161;" horiz-adv-x="444" 
d="M29 186c0 -3.33301 -0.332031 -8.00098 -0.999023 -14.001v-13c0 -34.667 6.16699 -63.667 18.5 -87s27.833 -41.166 46.5 -53.499s38.334 -21 59.001 -26s40.667 -7.5 60 -7.5c38 0 69.833 4.33301 95.5 13s45.667 20.5 60 35.5s24.5 32 30.5 51s9 39.833 9 62.5
c0 12 -0.666992 24.667 -2 38c-0.666992 9.33301 -4.16699 19.5 -10.5 30.5s-14 21.667 -23 32s-18.333 19.833 -28 28.5s-18.834 15.334 -27.501 20.001l-106 72l-3 2c-15.333 10.667 -26.833 20.334 -34.5 29.001s-11.5 20 -11.5 34c0 15.333 5 26.833 15 34.5
s23.333 11.5 40 11.5c21.333 0 36.666 -6.33301 45.999 -19s14 -35.334 14 -68.001h130c0 124.667 -60.333 187 -181 187c-62 0 -109.833 -11.833 -143.5 -35.5s-50.5 -57.5 -50.5 -101.5c0 -38.667 9.16699 -72 27.5 -100s44.833 -54 79.5 -78l71 -49
c4.66699 -3.33301 8.66699 -6 12 -8c16 -10 28.5 -19.333 37.5 -28s13.833 -19 14.5 -31c1.33301 -4.66699 2 -9.33398 2 -14.001c0 -14 -5.33301 -25.667 -16 -35s-24 -14 -40 -14c-20 0 -35.333 4.16699 -46 12.5s-16 27.833 -16 58.5c0 9.33301 0.666992 19.333 2 30
h-130zM389.001 759.999h-114l-63 -82l-64 82h-112l113 -146h125z" />
    <glyph glyph-name="Ydieresis" unicode="&#x178;" horiz-adv-x="556" 
d="M165 750l-153 0.00195312l195 -431v-319h140v319l198 431h-153l-67 -170c-1.33301 -3.33301 -3.33301 -8 -6 -14c-10.667 -26.667 -19 -48.834 -25 -66.501s-11 -38.167 -15 -61.5h-2c-5.33301 35.333 -16.333 73.666 -33 114.999zM244 830.002v115h-127v-115h127z
M440 830.002v115h-128v-115h128z" />
    <glyph glyph-name="florin" unicode="&#x192;" 
d="M492 747c-0.666992 0.666992 -1.66602 0.999023 -2.99902 0.999023c-2 0 -3.33301 0.333008 -4 1c-33.333 9.33301 -59.333 14 -78 14c-27.333 0 -51.333 -4.83301 -72 -14.5s-38 -23 -52 -40s-25.167 -36.333 -33.5 -58s-15.166 -46.167 -20.499 -73.5l-16 -78h-126v-95
h111l-65 -378c-6.66699 -37.333 -14.334 -64.666 -23.001 -81.999c-8 -16 -21.667 -24 -41 -24c-16 0 -30.333 5 -43 15l-17 -108c33.333 -8 62.333 -12 87 -12c26 0 50.667 6.16699 74 18.5s40.666 29.5 51.999 51.5c14.667 28 26.5 60.167 35.5 96.5
s17.5 78.833 25.5 127.5l48 295h124v95h-111l5 31c1.33301 7.33301 2.33301 15 3 23c2.66699 17.333 5.16699 31.166 7.5 41.499s6 20.333 11 30s12.167 17.334 21.5 23.001s21.333 8.5 36 8.5c13.333 0 27.333 -4 42 -12z" />
    <glyph glyph-name="circumflex" unicode="&#x2c6;" horiz-adv-x="333" 
d="M103 790l-113 -146h112l64 82l63 -82h114l-115 146h-125z" />
    <glyph glyph-name="tilde" unicode="&#x2dc;" horiz-adv-x="333" 
d="M285 764c-7.33301 -28 -24.001 -42 -50.001 -42c-5.33301 0 -13 1.66699 -23 5s-21.333 7.66602 -34 12.999l-4 1l-12 5c-13.333 4.66699 -24.166 8 -32.499 10s-18.833 3 -31.5 3c-25.333 0 -50 -11 -74 -33s-37.333 -52 -40 -90h62l1 2
c2.66699 6.66699 6 13.334 10 20.001s9 11.667 15 15s13 5 21 5c7.33301 0 14.666 -1 21.999 -3s16.333 -5 27 -9l3 -1l4 -1c21.333 -6.66699 38.666 -11.834 51.999 -15.501s24 -5.5 32 -5.5c12 0 23.833 1.83301 35.5 5.5s22.834 9.83398 33.501 18.501
s20.334 21 29.001 37s15 36 19 60h-65z" />
    <glyph glyph-name="endash" unicode="&#x2013;" 
d="M500 259v110h-500v-110h500z" />
    <glyph glyph-name="emdash" unicode="&#x2014;" horiz-adv-x="1000" 
d="M1000 259v110h-1000v-110h1000z" />
    <glyph glyph-name="quoteleft" unicode="&#x2018;" horiz-adv-x="278" 
d="M197 766c-45.333 -7.33301 -76.833 -23.001 -94.5 -47.001s-26.5 -59 -26.5 -105v-119h121v130h-64c0 30.667 5.33301 53.334 16 68.001s26.667 23.667 48 27v46z" />
    <glyph glyph-name="quoteright" unicode="&#x2019;" horiz-adv-x="278" 
d="M81 479c45.333 7.33301 76.833 23.001 94.5 47.001s26.5 59 26.5 105v119h-121v-130h64c0 -30.667 -5.33301 -53.334 -16 -68.001s-26.667 -23.667 -48 -27v-46z" />
    <glyph glyph-name="quotesinglbase" unicode="&#x201a;" horiz-adv-x="278" 
d="M87 -138c45.333 9.33301 76.667 25.166 94 47.499s26 56.833 26 103.5v119h-120v-130h63c0 -29.333 -4.5 -51.166 -13.5 -65.499s-25.5 -23.833 -49.5 -28.5v-46z" />
    <glyph glyph-name="quotedblleft" unicode="&#x201c;" 
d="M208 766c-45.333 -7.33301 -76.833 -23.001 -94.5 -47.001s-26.5 -59 -26.5 -105v-119h121v130h-64c0 30.667 5.33301 53.334 16 68.001s26.667 23.667 48 27v46zM405 765.999c-45.333 -7.33301 -76.833 -23.001 -94.5 -47.001s-26.5 -59 -26.5 -105v-119h121v130h-64
c0 30.667 5.33301 53.334 16 68.001s26.667 23.667 48 27v46z" />
    <glyph glyph-name="quotedblright" unicode="&#x201d;" 
d="M292 479c45.333 7.33301 76.833 23.001 94.5 47.001s26.5 59 26.5 105v119h-121v-130h64c0 -30.667 -5.33301 -53.334 -16 -68.001s-26.667 -23.667 -48 -27v-46zM95 479.001c45.333 7.33301 76.833 23.001 94.5 47.001s26.5 59 26.5 105v119h-121v-130h64
c0 -30.667 -5.33301 -53.334 -16 -68.001s-26.667 -23.667 -48 -27v-46z" />
    <glyph glyph-name="quotedblbase" unicode="&#x201e;" 
d="M293 -138c45.333 9.33301 76.667 25.1689 94 47.502s26 56.833 26 103.5v119h-120v-130h63c0 -14.667 -0.666992 -26.834 -2 -36.501s-4.33301 -18.834 -9 -27.501c-10 -14 -27.333 -24 -52 -30v-46zM96.001 -137.997c45.333 9.33301 76.667 25.166 94 47.499
s26 56.833 26 103.5v119h-120v-130h63c0 -29.333 -4.5 -51.166 -13.5 -65.499s-25.5 -23.833 -49.5 -28.5v-46z" />
    <glyph glyph-name="dagger" unicode="&#x2020;" 
d="M188 422v-577h128v577h147v112h-147v234h-128v-234h-151v-112h151z" />
    <glyph glyph-name="daggerdbl" unicode="&#x2021;" 
d="M188 77v-238h128v238h150v113h-150v230h150v113h-150v235h-128v-235h-153v-113h153v-230h-153v-113h153z" />
    <glyph glyph-name="bullet" unicode="&#x2022;" horiz-adv-x="420" 
d="M398 375c0 25.333 -4.83301 49.333 -14.5 72s-23.334 42.667 -41.001 60s-38 30.833 -61 40.5s-47.167 14.5 -72.5 14.5s-49.5 -4.83301 -72.5 -14.5s-43 -23.167 -60 -40.5s-30.333 -37.333 -40 -60s-14.5 -46.667 -14.5 -72s4.83301 -49.5 14.5 -72.5
s23 -43.333 40 -61s37 -31.334 60 -41.001s47.167 -14.5 72.5 -14.5s49.5 4.83301 72.5 14.5s43.333 23.334 61 41.001s31.334 38 41.001 61s14.5 47.167 14.5 72.5z" />
    <glyph glyph-name="ellipsis" unicode="&#x2026;" horiz-adv-x="1000" 
d="M233 0v132h-132v-132h132zM566 0v132h-132v-132h132zM899 0v132h-132v-132h132z" />
    <glyph glyph-name="perthousand" unicode="&#x2030;" horiz-adv-x="1111" 
d="M579 366c-34 0 -61.5 -4.83301 -82.5 -14.5s-36.5 -22.834 -46.5 -39.501s-16.5 -35 -19.5 -55s-4.5 -44.667 -4.5 -74c0 -28.667 1.5 -53.167 4.5 -73.5s9.5 -38.833 19.5 -55.5s25.5 -29.834 46.5 -39.501s48.5 -14.5 82.5 -14.5c34.667 0 62.667 4.83301 84 14.5
s37 22.834 47 39.501s16.333 35.167 19 55.5s4 44.833 4 73.5s-1.33301 53.167 -4 73.5s-9 38.833 -19 55.5s-25.667 29.834 -47 39.501s-49.333 14.5 -84 14.5zM580 293c26 0 42 -8.16699 48 -24.5s9 -44.833 9 -85.5s-3 -69.167 -9 -85.5s-22 -24.5 -48 -24.5
s-42.167 8.16699 -48.5 24.5s-9.5 44.833 -9.5 85.5s3.16699 69.167 9.5 85.5s22.5 24.5 48.5 24.5zM937 366c-34 0 -61.5 -4.83301 -82.5 -14.5s-36.5 -22.834 -46.5 -39.501s-16.5 -35 -19.5 -55s-4.5 -44.667 -4.5 -74c0 -28.667 1.5 -53.167 4.5 -73.5
s9.5 -38.833 19.5 -55.5s25.5 -29.834 46.5 -39.501s48.5 -14.5 82.5 -14.5c34.667 0 62.667 4.83301 84 14.5s37 22.834 47 39.501s16.333 35.167 19 55.5s4 44.833 4 73.5s-1.33301 53.167 -4 73.5s-9 38.833 -19 55.5s-25.667 29.834 -47 39.501s-49.333 14.5 -84 14.5z
M938 293c26 0 42 -8.16699 48 -24.5s9 -44.833 9 -85.5s-3 -69.167 -9 -85.5s-22 -24.5 -48 -24.5s-42.167 8.16699 -48.5 24.5s-9.5 44.833 -9.5 85.5s3.16699 69.167 9.5 85.5s22.5 24.5 48.5 24.5zM174 736c-34 0 -61.5 -4.83301 -82.5 -14.5
s-36.5 -22.834 -46.5 -39.501s-16.5 -35 -19.5 -55s-4.5 -44.667 -4.5 -74c0 -28.667 1.5 -53.167 4.5 -73.5s9.5 -38.833 19.5 -55.5s25.5 -29.834 46.5 -39.501s48.5 -14.5 82.5 -14.5c34.667 0 62.667 4.83301 84 14.5s37 22.834 47 39.501s16.333 35.167 19 55.5
s4 44.833 4 73.5s-1.33301 53.167 -4 73.5s-9 38.833 -19 55.5s-25.667 29.834 -47 39.501s-49.333 14.5 -84 14.5zM175 663c26 0 42 -8.16699 48 -24.5s9 -44.833 9 -85.5s-3 -69.167 -9 -85.5s-22 -24.5 -48 -24.5s-42.167 8.16699 -48.5 24.5s-9.5 44.833 -9.5 85.5
s3.16699 69.167 9.5 85.5s22.5 24.5 48.5 24.5zM246 -18l338 766h-72l-339 -766h73z" />
    <glyph glyph-name="guilsinglleft" unicode="&#x2039;" horiz-adv-x="278" 
d="M215 62v113l-95 85l95 75v112l-157 -141v-102z" />
    <glyph glyph-name="guilsinglright" unicode="&#x203a;" horiz-adv-x="278" 
d="M63 62l157 142v102l-157 141v-112l94 -79l-94 -81v-113z" />
    <glyph glyph-name="trademark" unicode="&#x2122;" horiz-adv-x="860" 
d="M774 750h-129l-80 -239h-2l-81 239h-129v-404h80v326h2l105 -326h47l105 326h2v-326h80v404zM310 750h-309v-78h114v-326h80v326h115v78z" />
    </font>
</defs>
</svg>
